<?xml version="1.0" encoding="utf-8"?>
<!-- Generator: Adobe Illustrator 23.0.1, SVG Export Plug-In . SVG Version: 6.00 Build 0)  -->
<svg version="1.1" id="Layer_1" xmlns="http://www.w3.org/2000/svg" xmlns:xlink="http://www.w3.org/1999/xlink" x="0px" y="0px"
	 viewBox="0 0 247.2 138.6" style="enable-background:new 0 0 247.2 138.6;" xml:space="preserve">
<style type="text/css">
	.st0{fill-rule:evenodd;clip-rule:evenodd;fill:#533A10;}
	.st1{fill-rule:evenodd;clip-rule:evenodd;fill:#006422;}
</style>
<title>Asset 2</title>
<g>
	<g id="svgRoot">
		<g id="rootGroup">
			<g id="Layer1000">
				<path class="st0" d="M156.4,33.9l0.6-0.5c0.4-0.3,0.7-0.5,1-0.7c0.2-0.2,0.5-0.3,0.7-0.4l0,0l0.5-0.1c0.2,0,0.4-0.1,0.5-0.1
					c0.3,0,0.5,0.1,0.7,0.2l0,0c0.2,0.2,0.3,0.4,0.4,0.6l0,0c0,0.3,0,0.6-0.1,0.8c-0.2,0.4-0.4,0.7-0.6,1c-0.3,0.4-0.6,0.8-0.9,1.2
					s-0.8,1-1.2,1.5l0,0l-1.5,1.8l-1.6,2c-0.6,0.7-1.1,1.4-1.7,2.2s-1.2,1.5-1.7,2.3c-0.7,1-1.5,2-2.2,3.1c-0.8,1.1-1.5,2.2-2.3,3.3
					s-1.5,2.3-2.2,3.5s-1.4,2.4-2.1,3.7s-1.4,2.5-2,3.8c-0.6,1.3-1.3,2.6-1.9,3.9s-1.2,2.7-1.7,4s-1,2.6-1.4,3.9h0.1l0.5,0.1l0,0
					h0.4c0,0,0,0,0.1-0.1s0.3-0.2,0.6-0.3l0.8-0.5l1-0.6c1.2-0.7,2.4-1.4,3.6-2.2l1.2-0.7l1.1-0.7l0.9-0.6l0.7-0.4l0,0l0.4-0.3
					c0.1,0,0.2-0.1,0.3-0.1l0,0c0.3,0,0.5,0.1,0.7,0.3l0.5-0.7c0.5-0.7,1-1.4,1.5-2.1s1-1.3,1.6-2s1.1-1.2,1.7-1.7s1.1-1,1.7-1.5
					c0.6-0.4,1.2-0.7,1.8-1.1c0.5-0.3,1.1-0.6,1.7-0.8l0,0c0.5-0.2,1.1-0.3,1.6-0.3c0.4,0,0.8,0.1,1.2,0.2c0.4,0.1,0.7,0.3,1.1,0.6
					c0.3,0.3,0.6,0.6,0.7,1c0.2,0.4,0.2,0.9,0.2,1.4c0,0.2,0,0.3-0.1,0.5c0,0.2-0.1,0.4-0.2,0.6s-0.2,0.5-0.2,0.7l-0.3,0.7
					c-0.2,0.5-0.5,1-0.8,1.6l-0.3,0.5l0,0c0.3,0,0.5,0,0.8,0.1c0.2,0.1,0.5,0.2,0.7,0.3c0.2,0.2,0.4,0.4,0.5,0.7l0,0
					c0.1,0.3,0.1,0.6,0.1,0.9c0,0.2,0,0.4-0.1,0.7c-0.1,0.3-0.1,0.5-0.2,0.8l0,0c-0.2,0.5-0.4,1-0.6,1.6c-0.1,0.3-0.2,0.6-0.3,0.8
					s-0.2,0.5-0.3,0.8c-0.1,0.3-0.1,0.5-0.1,0.8c0,0.2,0,0.4-0.1,0.6c0,0.1,0,0.3,0,0.4c0,0.1,0,0.2,0.1,0.3c0,0,0,0.1,0.1,0.1
					c0.1,0,0.1,0,0.2,0c0.7-0.2,1.4-0.6,1.9-1.1c0.5-0.4,1-0.8,1.5-1.3s1.1-1,1.6-1.5c0.1-0.1,0.2-0.1,0.3-0.1
					c0.2,0,0.5,0.1,0.6,0.3c0.1,0.1,0.2,0.2,0.2,0.4l0,0c0.2,0.5,0,1-0.4,1.4l0,0l0,0c-0.2,0.2-0.5,0.4-0.7,0.6l-0.8,0.7l-0.9,0.8
					l-0.9,0.8c-0.3,0.2-0.6,0.5-1,0.7s-0.7,0.4-1,0.6c-0.3,0.2-0.7,0.3-1,0.4c-0.3,0.1-0.6,0.1-0.9,0.2c-0.9,0-1.7-0.5-2-1.3
					c-0.2-0.4-0.3-0.9-0.4-1.3c-0.1-0.5-0.1-1-0.1-1.5c0-0.3,0-0.6,0.1-0.9s0.1-0.7,0.2-1.1s0.1-0.7,0.2-1l0,0l-0.1,0.1l0,0
					l-0.6,0.6l-0.7,0.6l0,0l-0.8,0.7l-0.9,0.8l-0.9,0.8l-0.8,0.8l-0.9,0.8l-1,0.9L151,78l-1.1,0.9l-1,0.8l-1,0.7
					c-0.3,0.2-0.6,0.4-0.9,0.5c-0.2,0.1-0.5,0.2-0.7,0.2c-0.3,0-0.6-0.1-0.8-0.3l0,0c-0.2-0.2-0.4-0.4-0.6-0.7l0,0
					c-0.2-0.3-0.3-0.6-0.3-0.9c-0.1-0.3-0.1-0.7-0.1-1c0-0.6,0.1-1.2,0.2-1.7c0.1-0.7,0.3-1.3,0.6-1.9c0.2-0.7,0.5-1.4,0.9-2.1
					l0.4-0.8l-0.4,0.4l-1.3,1.1c-0.9,0.8-1.9,1.6-3,2.5c-0.5,0.4-1.1,0.8-1.6,1.2s-1.1,0.8-1.6,1.1s-1,0.7-1.5,1s-0.9,0.6-1.4,0.8
					c-0.4,0.2-0.8,0.4-1.2,0.6c-0.3,0.1-0.7,0.2-1,0.2c-0.7,0-1.4-0.3-1.9-0.7c-0.3-0.2-0.6-0.6-0.7-0.9l0,0
					c-0.2-0.4-0.2-0.8-0.2-1.3c0-0.4,0-0.7,0.1-1.1c0.3-1.6,0.9-3.1,1.5-4.5c0.3-0.6,0.5-1.2,0.8-1.8s0.6-1.2,0.9-1.9s0.7-1.3,1-1.9
					s0.7-1.2,1.1-1.8l1.2-2.3l1.2-2.2c0.4-0.7,0.8-1.5,1.2-2.2c1.9-3.4,4.1-6.4,6.2-9.7c-3,3.6-5.8,7.2-9,10.7
					c-0.7,0.8-1.4,1.5-2,2.3c-1.9,2.2-3.6,4.3-5.6,6.5c-2.4,2.6-4.9,5.1-7.5,7.4c-2.9,2.6-6,4.8-9.4,6.6c-1.7,0.9-3.5,1.7-5.3,2.3
					c-1.6,0.6-3.2,1-4.9,1.3c-1.4,0.2-2.8,0.3-4.2,0.2l0,0c-1.2-0.1-2.4-0.4-3.5-0.8c-1-0.4-1.9-0.9-2.7-1.5c-3.3-2.6-5-6.8-4.5-11
					C89.1,60,102.7,47.7,115.8,47h0.1c2.3,0.1,4.5,1,6.3,2.5l0,0c0.4,0.4,0.8,0.7,1.1,1.2c1.7,2.4,1.5,5.3,0.3,7.8
					c-0.5,1-1.1,1.9-1.8,2.8c-0.8,1-1.7,1.9-2.6,2.7c-1,1-2.1,1.9-3.3,2.7c-0.1,0.1-0.2,0.2-0.4,0.3c-0.1,0.1-0.3,0.1-0.5,0.1
					c-0.4,0-0.8-0.3-0.8-0.7c0,0,0-0.1,0-0.1c0-0.1,0-0.1,0-0.2c0.1-0.2,0.3-0.4,0.4-0.6l0,0l0.2-0.3l0.3-0.3l0.1-0.1
					c0.8-0.6,1.5-1.3,2.2-2.1c0.6-0.6,1.2-1.3,1.6-2.1c0.4-0.7,0.8-1.4,1.1-2.1c1.2-2.8,1.4-6.7-1.7-8.2c-0.8-0.4-1.6-0.6-2.5-0.6
					l0,0c-0.8,0-1.5,0-2.3,0.2c-0.8,0.2-1.6,0.4-2.4,0.8c-0.8,0.3-1.6,0.8-2.4,1.2c-6.6,4-14,13.8-15,21.5l0,0l0,0
					c-0.3,1.3-0.4,2.7-0.3,4l0,0c0.1,1.1,0.4,2.1,0.9,3.1c1,1.8,2.9,2.9,4.9,2.9c1.3-0.1,2.6-0.2,3.8-0.6c5.7-1.6,12.5-6.2,17-9.9
					c1.4-1.1,2.3-2.3,3.6-3.6c6.7-6.2,12.1-13.6,18-20.5S154.7,35,156.4,33.9z M114.3,66c0.1-0.1,0.2-0.2,0.4-0.2L114.3,66z
					 M246.4,73.4l-0.7,0.6l-0.8,0.7c-0.6,0.5-1.2,1-1.8,1.5c-0.3,0.2-0.6,0.5-1,0.7s-0.7,0.4-1,0.6c-0.3,0.2-0.7,0.3-1,0.4
					c-0.3,0.1-0.6,0.1-0.9,0.2c-0.9,0-1.7-0.5-1.9-1.3l0,0c-0.2-0.4-0.3-0.8-0.4-1.3c-0.1-0.5-0.1-1-0.1-1.5c0-0.3,0-0.6,0.1-0.9
					c0-0.3,0.1-0.7,0.2-1.1s0.1-0.7,0.2-1l0,0l-0.1,0l0,0l-0.6,0.5l-0.8,0.6l0,0c-0.4,0.4-1,0.9-1.7,1.5l-0.9,0.8l-0.8,0.8l-0.9,0.8
					l-1,0.9l-1.1,1l-1.1,0.9l-1.1,0.8l-1,0.7c-0.3,0.2-0.6,0.4-0.9,0.5c-0.2,0.1-0.5,0.2-0.7,0.2c-0.3,0-0.6-0.1-0.8-0.3l0,0
					c-0.2-0.2-0.4-0.4-0.6-0.7l0,0c-0.2-0.3-0.3-0.6-0.3-0.9c-0.1-0.3-0.1-0.7-0.1-1c0-0.5,0.1-1,0.1-1.4c0-0.1,0-0.2,0-0.3
					l-0.3,0.2l-0.6,0.5l-0.6,0.4c-0.3,0.2-0.7,0.4-1.1,0.7l-1.2,0.8c-0.5,0.3-1,0.5-1.5,0.6c-0.5,0.1-1,0.2-1.5,0.2
					c-0.3,0-0.7,0-1-0.1c-0.3-0.1-0.6-0.2-0.9-0.4c-0.3-0.2-0.6-0.5-0.7-0.9l0,0c-0.2-0.4-0.3-0.8-0.3-1.2l0,0
					c-0.1-0.5-0.1-0.9,0-1.4c0.1-0.5,0.2-1.1,0.4-1.6c0.2-0.6,0.4-1.1,0.6-1.7s0.4-0.9,0.6-1.3h-0.2c-0.8-0.1-1.7-0.1-2.5-0.1h-1.3
					h-1.3l-0.8,0.1l-0.9,1.4l-0.9,1.6l0,0c-0.5,0.8-0.9,1.4-1.2,2s-0.8,1.3-1.1,1.8l-0.8,1.4l-0.5,0.9c-0.1,0.1-0.2,0.2-0.4,0.2l0,0
					c-0.1,0-0.2,0-0.3-0.1l0,0l-0.3-0.2c-0.3-0.1-0.5-0.3-0.8-0.5c-1.5-0.8-2.5-2.4-3.9-2.7l-0.6-0.1c-8,13.7-16.6,23.3-30.3,32.2
					c-3.9,2.4-8.2,4.1-12.6,5.2c-1.1,0.3-2.3,0.4-3.4,0.4c-0.5,0-1-0.1-1.5-0.3c-0.5-0.2-0.9-0.4-1.3-0.7c-0.4-0.3-0.8-0.8-1-1.3
					c-0.2-0.5-0.3-1.1-0.3-1.7c0-1,0.2-2,0.5-3c0.4-1.2,1-2.3,1.6-3.3l0,0c0.8-1.2,1.6-2.3,2.5-3.4c1-1.2,2.1-2.4,3.2-3.5
					c1.2-1.2,2.5-2.3,3.8-3.5s2.8-2.3,4.4-3.5c1.6-1.2,3.1-2.3,4.8-3.3s3.3-2.1,5-3.2s3.4-2,5.2-2.9s3.5-1.8,5.3-2.6
					s3.5-1.5,5.2-2.2s3.2-1.2,4.8-1.7c0.3-0.5,0.5-1,0.7-1.5s0.5-1.1,0.8-1.6s0.5-1.1,0.7-1.6c0.1-0.3,0.2-0.5,0.3-0.8l-0.3,0.3
					c-0.2,0.2-0.5,0.4-0.9,0.7l-1.1,0.8l-1.2,0.9l-1.3,1c-0.5,0.3-0.9,0.7-1.3,1l0,0c-0.4,0.3-0.9,0.6-1.3,0.9s-0.9,0.6-1.2,0.8
					s-0.8,0.4-1.1,0.7l0,0c-0.3,0.2-0.7,0.3-1,0.5l0,0c-0.2,0.1-0.5,0.2-0.8,0.2c-0.3,0-0.7-0.1-1-0.2c-0.3-0.2-0.7-0.4-0.9-0.7
					c-0.2-0.2-0.4-0.4-0.5-0.7l0,0l-0.1-0.1c-0.4,0.4-0.9,0.8-1.4,1.2c-0.5,0.4-1,0.8-1.6,1.2s-1.1,0.7-1.6,1.1s-1.1,0.6-1.6,0.9
					c-0.5,0.2-1,0.4-1.5,0.5c-0.4,0.1-0.8,0.1-1.2,0c-0.4-0.1-0.8-0.2-1.1-0.4l0,0c-0.4-0.2-0.7-0.5-1-0.9c-0.3-0.4-0.6-0.9-0.7-1.5
					c-0.1-0.7-0.1-1.3,0-2c0-0.4,0.1-0.7,0.3-1.1c0.2-0.4,0.4-0.8,0.6-1.2l0,0c0.5-0.8,1.1-1.8,1.8-2.8l0,0l1-1.5l1.1-1.4
					c0.3-0.5,0.7-0.9,0.9-1.4s0.6-0.9,0.8-1.3l0,0c0.2-0.4,0.4-0.7,0.5-1.1c0.1-0.3,0.2-0.6,0.2-0.9c0-0.2,0-0.4-0.1-0.5
					c-0.1-0.2-0.3-0.3-0.5-0.3c-0.2-0.1-0.4-0.1-0.7-0.1c-0.3,0-0.5,0.1-0.8,0.2l0,0c-0.7,0.3-1.3,0.7-1.9,1.2
					c-0.4,0.3-0.7,0.6-1.1,0.9s-0.8,0.7-1.2,1c-0.8,0.8-1.6,1.5-2.4,2.3c-0.2,0.2-0.4,0.2-0.6,0c0,0,0,0,0,0
					c-0.1-0.1-0.1-0.1-0.1-0.2l0,0l-0.2-1c0-0.1,0-0.3,0.1-0.4c0.4-0.4,0.7-0.8,1.1-1.2l1.4-1.3c0.5-0.5,1-0.9,1.5-1.3
					s1.1-0.8,1.6-1.2c0.5-0.3,1-0.6,1.6-0.9c0.5-0.3,1-0.5,1.6-0.7c0.5-0.2,1-0.2,1.5-0.2c0.5,0,0.9,0.1,1.3,0.3
					c0.3,0.1,0.6,0.2,0.9,0.3c0.3,0.2,0.5,0.4,0.7,0.6c0.2,0.2,0.4,0.5,0.5,0.8c0.1,0.3,0.2,0.7,0.3,1c0,0.4,0,0.7,0,1.1
					c-0.1,0.4-0.2,0.8-0.3,1.1c-0.2,0.4-0.3,0.8-0.6,1.2c-0.3,0.4-0.5,0.9-0.9,1.3l0,0c-0.6,0.7-1.2,1.4-1.9,2.2s-1.2,1.4-1.8,2
					s-1.1,1.2-1.6,1.8s-0.9,1-1.2,1.5c-0.3,0.4-0.6,0.8-0.8,1.3c-0.2,0.3-0.3,0.7-0.3,1c0,0.3,0.1,0.5,0.2,0.7
					c0.2,0.3,0.5,0.5,0.9,0.7c0.2,0.1,0.4,0.1,0.6,0.1c0.3-0.1,0.7-0.2,1-0.3c0.4-0.2,0.8-0.4,1.2-0.7c0.4-0.3,0.9-0.6,1.3-0.9
					s0.9-0.7,1.3-1s0.8-0.7,1.2-1.1l0.8-0.8c0.2-0.2,0.4-0.4,0.6-0.6s0.1-0.3,0.2-0.5s0.2-0.4,0.4-0.7c0.3-0.5,0.6-1,0.9-1.5
					s0.7-1,1-1.5c0.7-1,1.4-1.9,2.1-2.7c0.4-0.4,0.6-0.7,0.9-0.9c0.2-0.2,0.5-0.4,0.8-0.4c0.2,0,0.5,0.1,0.6,0.2l0,0
					c0.2,0.1,0.4,0.3,0.5,0.4c0.3,0.3,0.5,0.7,0.6,1.1c0,0.2-0.1,0.4-0.2,0.6c-0.1,0.2-0.3,0.5-0.5,0.9l-0.7,1.2l0,0l-0.8,1.2l0,0
					l-0.8,1.2c-0.2,0.3-0.4,0.7-0.7,1.2s-0.4,0.6-0.5,0.8s-0.1,0.1-0.1,0.2s0,0.1,0,0.2l0,0v0h0.1c0.1,0,0.3-0.1,0.4-0.1
					c0.3-0.1,0.5-0.3,0.8-0.4l1-0.7l1.1-0.8l1.1-0.9c0.4-0.3,0.8-0.6,1.1-0.9l1.1-0.8l1-0.7l0,0c1.2-0.9,2.2-1.7,3-2.5
					c0.7-0.6,1.5-1.3,2.1-2c0.6-0.6,1-1.1,1.4-1.4c0.2-0.3,0.6-0.5,0.9-0.6c0.4,0,0.8,0.2,1,0.6c0.2,0.4,0.3,0.8,0.2,1.3
					c0,1.8-0.4,3.6-1,5.3c-0.3,0.9-0.7,1.9-1.1,3c-0.4,0.8-0.8,1.7-1.2,2.6l0.7,0.1c0.4,0.1,0.7,0.2,1.1,0.4l0,0
					c0.3,0.2,0.6,0.4,0.8,0.7c0.1,0.1,0.2,0.3,0.2,0.4v-0.1c0.3-0.5,0.6-1.1,1-1.7s0.8-1.3,1.2-2l0,0l2.3-3.6l0,0l0.3-0.5l0,0
					c0.1-0.1,0.2-0.3,0.3-0.5l0,0l1.6-2.4l1.5-2.2c0.5-0.7,0.9-1.3,1.4-1.9l1.2-1.5c0.8-1,1.4-1.5,1.7-1.5c0.2,0,0.5,0.1,0.7,0.2
					l0,0c0.2,0.1,0.4,0.2,0.5,0.4c0.1,0.2,0.3,0.3,0.4,0.5c0.1,0.2,0.2,0.4,0.2,0.5c0,0,0,0,0,0.1l0,0l0,0c0,0.1,0,0.1-0.1,0.2
					c-0.1,0.1-0.1,0.2-0.2,0.4l-0.6,1l-0.9,1.5l0,0l-1.1,1.8l0,0l-2.1,3.5h1l1.1,0.1l1.1,0.1l1.1,0.1l0,0l0.8,0.1l0,0l0.4,0.1
					c0.2-0.3,0.4-0.7,0.6-1l0,0c0.2-0.4,0.4-0.7,0.5-0.9L217,67c0.1-0.2,0.2-0.4,0.3-0.6c0-0.2,0-0.3,0-0.5c0,0,0-0.1,0-0.1l0,0
					c0-0.1,0-0.3,0.1-0.4c0-0.1,0.1-0.3,0.2-0.5c0.1-0.2,0.2-0.4,0.2-0.5c0.1-0.2,0.2-0.3,0.4-0.5c0.1-0.2,0.3-0.3,0.4-0.5l0,0
					c0.2-0.1,0.3-0.3,0.5-0.4c0.2-0.1,0.4-0.2,0.6-0.3c0.2-0.1,0.4-0.1,0.6-0.1c0.5,0,1.1,0.2,1.5,0.5c0.2,0.1,0.4,0.3,0.5,0.5
					c0.1,0.2,0.2,0.4,0.3,0.6l0,0c0,0.2,0,0.4,0,0.7s0,0.5,0,0.9l0,0c0,0.3,0,0.6-0.1,0.9l0,0c-0.1,0.3-0.2,0.5-0.3,0.7v0.1l0,0
					c-0.1,0.1-0.2,0.2-0.2,0.3c-0.1,0.2-0.3,0.3-0.4,0.5l0,0l-0.5,0.7l-0.6,0.8l-0.6,0.8l0,0c-0.2,0.2-0.4,0.5-0.6,0.8l-0.5,0.8
					l-0.4,0.6l0,0c-0.3,0.4-0.5,0.8-0.8,1.2s-0.5,0.8-0.7,1.2l0,0c-0.2,0.3-0.3,0.7-0.4,1l0,0c-0.1,0.2-0.1,0.5-0.1,0.7
					c0,0,0,0,0,0.1l0,0c0,0,0,0.1,0,0.1c0,0.1,0.1,0.1,0.1,0.2l0,0c0,0,0,0.1,0.1,0.1c0,0,0.1,0,0.1,0c0.3,0,0.5-0.1,0.8-0.1
					c0.3-0.1,0.7-0.2,1-0.4c0.4-0.2,0.8-0.4,1.2-0.6s0.8-0.5,1.2-0.7l0,0l1.1-0.8l1-0.8l0.6-0.4l0.4-0.3c0.2-0.4,0.4-0.8,0.6-1.3
					l0,0c0.2-0.4,0.5-0.9,0.7-1.4c0.8-1.5,1.7-2.9,2.8-4.2c0.5-0.7,1-1.3,1.6-2c0.6-0.6,1.1-1.2,1.7-1.7s1.1-1,1.7-1.5
					c0.6-0.4,1.2-0.7,1.8-1c0.5-0.3,1.1-0.6,1.7-0.8l0,0c0.5-0.2,1.1-0.3,1.6-0.3c0.4,0,0.8,0.1,1.2,0.2c0.4,0.1,0.7,0.3,1.1,0.6
					c0.3,0.3,0.6,0.6,0.7,1c0.2,0.4,0.2,0.9,0.2,1.4c0,0.2,0,0.3-0.1,0.5l0,0c0,0.2-0.1,0.4-0.2,0.6c-0.1,0.2-0.2,0.5-0.2,0.7
					l-0.3,0.7l0,0c-0.1,0.2-0.2,0.5-0.4,0.8s-0.3,0.5-0.4,0.8l-0.3,0.5l0,0c0.3,0,0.5,0,0.8,0.1c0.2,0.1,0.5,0.2,0.7,0.3
					c0.2,0.2,0.4,0.4,0.5,0.7l0,0c0.1,0.3,0.1,0.6,0.1,0.8c0,0.2,0,0.4-0.1,0.7c0,0.3-0.1,0.5-0.2,0.8c-0.1,0.2-0.2,0.5-0.3,0.8
					s-0.2,0.6-0.3,0.8l-0.3,0.8c-0.1,0.3-0.2,0.5-0.2,0.8c-0.1,0.2-0.1,0.5-0.2,0.7c0,0.2,0,0.4-0.1,0.6c0,0.1,0,0.3,0,0.4
					c0,0.1,0,0.2,0.1,0.3c0,0,0,0.1,0.1,0.1c0.1,0,0.1,0,0.2,0c0.7-0.2,1.4-0.6,1.9-1.1c0.5-0.4,1-0.8,1.5-1.3s1.1-1,1.6-1.5
					l0.1-0.1c0.3-0.2,0.7-0.3,1-0.1c0.2,0.1,0.3,0.2,0.4,0.3c0.1,0.1,0.1,0.3,0.1,0.5l0,0C247.1,72.5,246.8,73.1,246.4,73.4
					L246.4,73.4z M239.3,62c0-0.1,0-0.1-0.1-0.1c-0.2,0-0.4,0.1-0.6,0.2c-0.4,0.2-0.7,0.4-1,0.6c-0.4,0.3-0.8,0.6-1.3,1
					c-0.4,0.4-0.9,0.8-1.4,1.2s-1,0.9-1.5,1.4s-1,1.1-1.6,1.6c-1,1.2-2,2.3-2.9,3.5l0,0c-0.6,0.8-1.1,1.5-1.6,2.2
					c-0.4,0.6-0.8,1.2-1.1,1.9c-0.3,0.5-0.5,1-0.7,1.6c-0.1,0.3-0.2,0.7-0.2,1l0,0l0.6-0.4c0.6-0.4,1.3-0.9,2.1-1.6l1.2-1l1.2-1.1
					l2.3-2l0,0l1.1-1l1-1l1-0.9l0,0l0.8-0.7c0.2-1.6,0.8-3.1,1.8-4.4C238.8,63.4,239.1,62.7,239.3,62z M191.2,77.8
					c-1.2,0.4-2.4,0.8-3.6,1.3c-1.6,0.6-3.2,1.3-4.9,2.1s-3.3,1.6-4.9,2.5s-3.3,1.8-4.9,2.8s-3.2,2-4.7,3s-3.1,2.1-4.5,3.2
					s-2.8,2.2-4.1,3.3s-2.5,2.2-3.6,3.3s-2.1,2.2-2.9,3.2c-0.8,1-1.6,2-2.3,3.1c-0.6,0.9-1.1,1.8-1.4,2.8c-0.3,0.8-0.5,1.6-0.5,2.4
					c0,0.3,0,0.5,0.1,0.8c0.1,0.2,0.2,0.4,0.4,0.6c0.1,0.2,0.3,0.3,0.5,0.4l0,0c0.2,0.1,0.5,0.1,0.8,0.1c0.6,0,1.2-0.1,1.8-0.2
					c0.7-0.2,1.5-0.4,2.2-0.7c3.7-1.7,7.3-3.8,10.5-6.3c8.9-7.3,16.9-15,23.9-24.4C189.8,80.1,190.5,78.9,191.2,77.8L191.2,77.8z
					 M161.2,62c0-0.1,0-0.1-0.1-0.1c-0.6,0.1-1.1,0.4-1.6,0.8c-0.4,0.3-0.8,0.6-1.3,1s-0.9,0.8-1.4,1.2s-1,0.9-1.5,1.4
					s-1,1.1-1.6,1.6c-1,1.2-2,2.3-2.9,3.5l0,0c-0.6,0.8-1.1,1.5-1.5,2.2c-0.4,0.6-0.8,1.2-1.1,1.9c-0.3,0.5-0.5,1-0.7,1.6
					c-0.1,0.3-0.2,0.7-0.2,1l0,0l0.6-0.4c0.3-0.2,0.6-0.4,0.9-0.7s0.7-0.5,1.1-0.8l1.2-1l1.2-1.1l2.3-2l0,0c0.4-0.4,0.8-0.7,1.1-1
					l1-1C158.6,68.4,161.2,64.4,161.2,62z"/>
				<g id="Layer1004">
					<path class="st1" d="M89.5,108.7c0,0.1,0,0.2,0,0.3c0,0.1,0,0.1,0,0.2c0,0.1,0,0.1-0.1,0.2c0,0.1-0.1,0.1-0.2,0.2
						c-0.1,0.1-0.3,0.2-0.4,0.3c-0.2,0.1-0.5,0.3-0.7,0.3c-0.3,0.1-0.6,0.2-0.8,0.2c-0.3,0.1-0.7,0.1-1,0.1c-0.6,0-1.2-0.1-1.8-0.3
						c-0.5-0.2-1-0.6-1.3-1c-0.4-0.5-0.6-1-0.8-1.6c-0.2-0.7-0.3-1.4-0.3-2.2c0-0.8,0.1-1.6,0.3-2.4c0.2-0.6,0.5-1.2,0.9-1.6
						c0.4-0.4,0.9-0.7,1.4-0.9c0.6-0.2,1.1-0.3,1.7-0.3c0.3,0,0.6,0,0.9,0.1c0.3,0,0.5,0.1,0.8,0.2c0.2,0.1,0.4,0.2,0.6,0.3
						c0.1,0.1,0.3,0.2,0.4,0.3l0.2,0.2c0,0.1,0.1,0.1,0.1,0.2c0,0.1,0,0.1,0,0.2s0,0.2,0,0.3c0,0.2,0,0.4-0.1,0.6
						c0,0.1-0.1,0.2-0.2,0.2c-0.1,0-0.3-0.1-0.4-0.2c-0.2-0.1-0.3-0.3-0.5-0.4c-0.2-0.2-0.5-0.3-0.8-0.4c-0.3-0.1-0.7-0.2-1-0.2
						c-0.8,0-1.5,0.4-1.9,1c-0.5,0.8-0.7,1.8-0.7,2.8c0,0.5,0.1,1.1,0.2,1.6c0.1,0.4,0.3,0.8,0.5,1.1c0.2,0.3,0.5,0.5,0.8,0.7
						c0.3,0.2,0.7,0.2,1.1,0.2c0.4,0,0.7-0.1,1.1-0.2c0.3-0.1,0.5-0.2,0.8-0.4c0.2-0.2,0.4-0.3,0.6-0.4c0.1-0.1,0.2-0.2,0.3-0.2
						c0,0,0.1,0,0.1,0c0,0,0.1,0.1,0.1,0.1c0,0.1,0,0.2,0,0.2C89.5,108.4,89.5,108.5,89.5,108.7z M98.3,101.2c0,0.1,0,0.2,0,0.4
						c0,0.1,0,0.2-0.1,0.2c0,0.1-0.1,0.1-0.1,0.2c-0.1,0-0.1,0-0.2,0h-2.8v8.1c0,0.1,0,0.1-0.1,0.2c0,0-0.1,0.1-0.1,0.1l-0.3,0.1
						h-0.4h-0.4l-0.3-0.1c-0.1,0-0.1-0.1-0.1-0.1c0,0,0-0.1,0-0.2V102h-2.9c0,0-0.1,0-0.2,0c0,0-0.1-0.1-0.1-0.2
						c0-0.1-0.1-0.2-0.1-0.2c0-0.1,0-0.2,0-0.4c0-0.1,0-0.2,0-0.3c0-0.1,0-0.2,0.1-0.2c0-0.1,0.1-0.1,0.1-0.2c0,0,0.1-0.1,0.2-0.1
						H98c0.1,0,0.1,0,0.2,0.1c0.1,0,0.1,0.1,0.1,0.2c0,0.1,0.1,0.2,0.1,0.2C98.3,101,98.3,101.1,98.3,101.2z M104.3,110.4l-1.2,3.5
						c-0.1,0.1-0.2,0.2-0.3,0.3c-0.3,0.1-0.5,0.1-0.8,0.1c-0.1,0-0.3,0-0.4,0c-0.1,0-0.2,0-0.2-0.1c-0.1,0-0.1-0.1-0.1-0.2
						c0-0.1,0-0.2,0-0.2l1.3-3.3c-0.1,0-0.1-0.1-0.2-0.1c-0.1-0.1-0.1-0.1-0.1-0.2l-3.3-9c0-0.1-0.1-0.2-0.1-0.3
						c0-0.1,0-0.1,0.1-0.2c0.1-0.1,0.2-0.1,0.3-0.1h0.5h0.5c0.1,0,0.2,0,0.3,0.1c0.1,0,0.1,0.1,0.2,0.1l0.1,0.2l2.7,7.5l0,0l2.6-7.6
						c0-0.1,0.1-0.2,0.2-0.3c0.1,0,0.2-0.1,0.3-0.1h0.5h0.5c0.1,0,0.2,0,0.3,0.1c0.1,0,0.1,0.1,0.1,0.2c0,0.1,0,0.2-0.1,0.3
						L104.3,110.4z M109,113.5c0,0,0,0.1,0,0.1c0,0-0.1,0.1-0.1,0.1h-0.2h-0.3H108h-0.2c0,0-0.1,0-0.1-0.1c0,0,0-0.1,0-0.1v-4.2
						c0-0.1,0-0.2,0.1-0.3c0.1-0.1,0.2-0.1,0.3-0.1h0.7c0.3-0.3,0.5-0.7,0.7-1.1c0.3-0.5,0.5-1,0.6-1.5c0.2-0.7,0.4-1.5,0.5-2.2
						c0.2-0.8,0.3-1.9,0.4-3.1c0-0.1,0-0.2,0.1-0.3c0-0.1,0.1-0.1,0.1-0.2c0,0,0.1-0.1,0.2-0.1c0.1,0,0.1-0.1,0.2-0.1h5.2
						c0.1,0,0.3,0,0.4,0.2c0.1,0.1,0.2,0.3,0.1,0.5v7.8h1.3c0.1,0,0.2,0,0.3,0.1c0.1,0.1,0.1,0.2,0.1,0.3v4.2c0,0,0,0.1,0,0.1
						c0,0-0.1,0.1-0.1,0.1h-0.2h-0.3h-0.3h-0.2c0,0-0.1,0-0.1-0.1c0,0,0-0.1,0-0.1v-3.2H109V113.5z M115.5,101.9h-3
						c-0.1,1.1-0.3,2.1-0.4,2.9c-0.1,0.7-0.3,1.3-0.5,2c-0.1,0.4-0.3,0.9-0.5,1.3c-0.2,0.3-0.4,0.6-0.6,0.9h5.1L115.5,101.9z
						 M129.2,110.1c0,0,0,0.1,0,0.1c0,0-0.1,0.1-0.1,0.1l-0.3,0.1h-0.4h-0.4l-0.3-0.1c-0.1,0-0.1-0.1-0.1-0.1c0,0,0-0.1,0-0.1v-5.4
						c0-0.3,0-0.6,0-0.8s0-0.6,0.1-0.8c-0.2,0.3-0.3,0.6-0.5,0.8l-0.6,0.8l-4,5.4l-0.1,0.2c0,0-0.1,0.1-0.2,0.1c-0.1,0-0.2,0-0.2,0
						h-0.3h-0.4l-0.2-0.1c-0.1,0-0.1-0.1-0.1-0.1c0,0,0-0.1,0-0.1v-9.4c0,0,0-0.1,0-0.1c0-0.1,0.1-0.1,0.1-0.1
						c0.1,0,0.2-0.1,0.3-0.1h0.4c0.2,0,0.5,0,0.7,0.1c0.1,0,0.2,0.1,0.2,0.2v5.4c0,0.3,0,0.5,0,0.8s0,0.5,0,0.8
						c0.2-0.3,0.3-0.5,0.5-0.8s0.3-0.5,0.5-0.8l4-5.5c0-0.1,0.1-0.1,0.1-0.1c0,0,0.1-0.1,0.2-0.1c0.1,0,0.2,0,0.2,0h0.4h0.4
						c0.1,0,0.2,0,0.2,0.1c0.1,0,0.1,0.1,0.1,0.1c0,0,0,0.1,0,0.1L129.2,110.1z M139.3,110.1c0,0,0,0.1,0,0.2c0,0-0.1,0.1-0.1,0.1
						l-0.3,0.1h-0.4H138l-0.3-0.1c-0.1,0-0.1-0.1-0.1-0.1c0,0,0-0.1,0-0.2v-3.9h-1c-0.3,0-0.7,0-1,0.1c-0.2,0.1-0.5,0.2-0.6,0.3
						c-0.2,0.2-0.4,0.4-0.5,0.6c-0.2,0.3-0.3,0.6-0.4,0.9l-0.8,1.8c0,0.1-0.1,0.1-0.1,0.2c-0.1,0.1-0.1,0.1-0.2,0.1
						c-0.1,0-0.2,0.1-0.3,0.1h-0.4h-0.4h-0.2c-0.1,0-0.1,0-0.1-0.1c0,0-0.1-0.1-0.1-0.1c0-0.1,0-0.2,0.1-0.2c0-0.1,0.1-0.3,0.2-0.6
						l0.8-1.8c0.2-0.4,0.4-0.8,0.7-1.2c0.3-0.3,0.6-0.6,1-0.7c-0.6-0.1-1.2-0.4-1.6-0.8c-0.4-0.5-0.6-1-0.6-1.7
						c0-0.4,0.1-0.8,0.3-1.2c0.2-0.4,0.5-0.7,0.8-0.9c0.4-0.3,0.9-0.5,1.3-0.6c0.6-0.1,1.2-0.2,1.8-0.2h0.6h0.7h0.7h0.6
						c0.2,0,0.4,0.1,0.5,0.2c0.1,0.1,0.2,0.3,0.2,0.5L139.3,110.1z M137.6,101.7c-0.2,0-0.5-0.1-0.8-0.1h-0.7c-0.4,0-0.8,0-1.2,0.1
						c-0.3,0.1-0.5,0.2-0.8,0.3c-0.2,0.1-0.3,0.3-0.4,0.5c-0.1,0.2-0.1,0.4-0.1,0.7c0,0.2,0,0.5,0.1,0.7c0.1,0.2,0.2,0.4,0.4,0.5
						c0.2,0.1,0.5,0.3,0.7,0.3c0.4,0.1,0.8,0.1,1.2,0.1h1.4L137.6,101.7z M93.6,129.7c0,0.7-0.1,1.4-0.3,2c-0.4,1.2-1.3,2.2-2.5,2.7
						c-0.7,0.3-1.4,0.5-2.1,0.5v3.3c0,0,0,0.1,0,0.1c0,0-0.1,0.1-0.1,0.1l-0.3,0.1h-0.4h-0.4l-0.3-0.1c-0.1,0-0.1-0.1-0.1-0.1
						c0,0,0-0.1,0-0.1V135c-0.7,0-1.5-0.2-2.2-0.4c-0.6-0.2-1.1-0.6-1.6-1c-0.4-0.4-0.7-1-0.9-1.6c-0.3-0.7-0.4-1.4-0.4-2.1
						c0-0.7,0.1-1.4,0.3-2c0.2-0.6,0.6-1.2,1-1.6c0.4-0.5,1-0.8,1.6-1.1c0.7-0.3,1.4-0.4,2.1-0.5v-4c0,0,0-0.1,0-0.1
						c0,0,0.1-0.1,0.1-0.1c0.1,0,0.2-0.1,0.3-0.1c0.1,0,0.3,0,0.4,0c0.1,0,0.3,0,0.4,0c0.1,0,0.2,0,0.3,0.1c0.1,0,0.1,0.1,0.1,0.1
						c0,0,0,0.1,0,0.1v4c0.7,0,1.5,0.2,2.2,0.4c0.6,0.2,1.1,0.6,1.6,1c0.4,0.5,0.7,1,0.9,1.6C93.5,128.4,93.6,129.1,93.6,129.7
						L93.6,129.7z M91.8,129.8c0.1-0.9-0.2-1.9-0.7-2.7c-0.6-0.7-1.5-1.1-2.4-1.1v7.4c0.9,0,1.7-0.4,2.3-1
						C91.6,131.8,91.9,130.8,91.8,129.8L91.8,129.8z M87,126.1c-0.9,0-1.7,0.4-2.3,1c-0.6,0.8-0.9,1.7-0.8,2.7c0,0.5,0,1,0.2,1.5
						c0.1,0.4,0.3,0.8,0.6,1.1c0.3,0.3,0.6,0.6,1,0.8c0.5,0.2,1,0.3,1.5,0.4L87,126.1z M103.4,134.5c0,0,0,0.1,0,0.1
						c0,0-0.1,0.1-0.1,0.1c-0.1,0-0.2,0.1-0.3,0.1c-0.1,0-0.3,0-0.4,0c-0.1,0-0.3,0-0.4,0c-0.1,0-0.2,0-0.3-0.1
						c-0.1,0-0.1-0.1-0.1-0.1c0,0,0-0.1,0-0.1v-8.2h-2.7c-0.1,1.1-0.2,2.1-0.4,3c-0.1,0.8-0.3,1.5-0.5,2.2c-0.2,0.6-0.4,1.1-0.7,1.6
						c-0.2,0.4-0.5,0.8-0.8,1.1c-0.3,0.3-0.6,0.4-0.9,0.6c-0.3,0.1-0.7,0.2-1.1,0.2c-0.1,0-0.1,0-0.2,0c-0.1,0-0.1-0.1-0.1-0.1
						c0-0.1-0.1-0.2-0.1-0.2c0-0.1,0-0.3,0-0.4c0-0.2,0-0.3,0-0.4c0-0.1,0-0.2,0.1-0.2c0-0.1,0-0.1,0.1-0.1c0,0,0.1,0,0.2,0
						c0.2,0,0.5-0.1,0.7-0.2c0.2-0.1,0.4-0.3,0.6-0.5c0.2-0.3,0.4-0.6,0.5-1c0.2-0.5,0.3-1,0.4-1.5c0.1-0.6,0.2-1.3,0.4-2.1
						s0.2-1.7,0.3-2.7c0-0.2,0-0.3,0.2-0.5c0.1-0.1,0.2-0.2,0.4-0.2h4.8c0.1,0,0.3,0,0.4,0.2c0.1,0.1,0.2,0.3,0.1,0.5L103.4,134.5z
						 M115.3,129.7c0,0.7-0.1,1.4-0.3,2.1c-0.2,0.6-0.5,1.2-0.9,1.7c-0.4,0.5-0.9,0.8-1.5,1.1c-0.7,0.3-1.4,0.4-2.1,0.4
						c-0.7,0-1.4-0.1-2-0.3c-0.5-0.2-1-0.6-1.4-1c-0.4-0.5-0.7-1-0.8-1.6c-0.2-0.7-0.3-1.4-0.3-2.1c0-0.7,0.1-1.4,0.3-2.1
						c0.2-0.6,0.5-1.2,0.9-1.7c0.4-0.5,0.9-0.8,1.5-1.1c0.7-0.3,1.4-0.4,2.1-0.4c0.7,0,1.4,0.1,2,0.3c0.6,0.2,1,0.6,1.4,1
						c0.4,0.5,0.7,1,0.9,1.6C115.2,128.3,115.3,129,115.3,129.7L115.3,129.7z M113.5,129.8c0-0.5,0-1-0.1-1.4
						c-0.1-0.4-0.2-0.8-0.5-1.2c-0.2-0.3-0.5-0.6-0.9-0.8c-0.4-0.2-0.9-0.3-1.4-0.3c-0.5,0-0.9,0.1-1.3,0.3
						c-0.4,0.2-0.7,0.4-0.9,0.8c-0.2,0.4-0.4,0.7-0.5,1.2c-0.1,0.5-0.2,1-0.2,1.5c0,0.5,0,1,0.1,1.4c0.1,0.4,0.2,0.8,0.5,1.2
						c0.2,0.3,0.5,0.6,0.9,0.8c0.4,0.2,0.9,0.3,1.4,0.3c0.5,0,0.9-0.1,1.3-0.3c0.4-0.2,0.7-0.4,0.9-0.8c0.2-0.4,0.4-0.7,0.5-1.2
						C113.4,130.8,113.5,130.3,113.5,129.8L113.5,129.8z M126.5,129.7c0,0.7-0.1,1.5-0.3,2.2c-0.1,0.6-0.4,1.2-0.8,1.7
						c-0.3,0.4-0.8,0.8-1.3,1.1c-0.5,0.3-1.1,0.4-1.7,0.4c-0.3,0-0.5,0-0.8-0.1c-0.2-0.1-0.5-0.1-0.7-0.3c-0.2-0.1-0.5-0.3-0.7-0.4
						c-0.2-0.2-0.5-0.4-0.7-0.6v4.7c0,0,0,0.1,0,0.1c0,0-0.1,0.1-0.1,0.1l-0.3,0.1h-0.4h-0.4l-0.3-0.1c-0.1,0-0.1-0.1-0.1-0.1
						c0,0,0-0.1,0-0.1v-13.1c0,0,0-0.1,0-0.2c0,0,0.1-0.1,0.1-0.1c0.1,0,0.2-0.1,0.2-0.1h0.7c0.1,0,0.2,0,0.2,0.1
						c0.1,0,0.1,0.1,0.1,0.1c0,0,0,0.1,0,0.2v1.3c0.3-0.3,0.5-0.5,0.8-0.8c0.2-0.2,0.5-0.4,0.8-0.5c0.3-0.1,0.5-0.2,0.8-0.3
						c0.3-0.1,0.6-0.1,0.9-0.1c0.6,0,1.2,0.1,1.7,0.4c0.5,0.3,0.9,0.6,1.2,1.1c0.3,0.5,0.5,1,0.7,1.6
						C126.4,128.4,126.5,129,126.5,129.7L126.5,129.7z M124.7,129.9c0-0.5,0-0.9-0.1-1.4c-0.1-0.4-0.2-0.8-0.4-1.2
						c-0.2-0.3-0.4-0.6-0.7-0.8c-0.3-0.2-0.7-0.3-1.1-0.3c-0.2,0-0.4,0-0.7,0.1c-0.2,0.1-0.5,0.2-0.7,0.3c-0.3,0.2-0.5,0.4-0.7,0.6
						c-0.3,0.3-0.5,0.6-0.8,0.9v3.7c0.4,0.5,0.8,0.9,1.3,1.3c0.4,0.3,0.8,0.5,1.3,0.5c0.4,0,0.8-0.1,1.1-0.3
						c0.3-0.2,0.6-0.5,0.8-0.8c0.2-0.4,0.3-0.8,0.4-1.2C124.7,130.7,124.7,130.3,124.7,129.9L124.7,129.9z M137.4,134.5
						c0,0,0,0.1,0,0.1c0,0-0.1,0.1-0.1,0.1c-0.1,0-0.2,0.1-0.3,0.1c-0.1,0-0.3,0-0.4,0c-0.1,0-0.3,0-0.4,0c-0.1,0-0.2,0-0.3-0.1
						c-0.1,0-0.1,0-0.1-0.1c0,0,0-0.1,0-0.1v-5.4c0-0.3,0-0.6,0-0.8s0-0.6,0.1-0.8c-0.2,0.3-0.3,0.6-0.5,0.8l-0.6,0.8l-4,5.4
						l-0.1,0.1c0,0-0.1,0.1-0.1,0.1l-0.2,0.1h-0.3c-0.1,0-0.3,0-0.4,0c-0.1,0-0.2,0-0.2-0.1c-0.1,0-0.1,0-0.1-0.1c0,0,0-0.1,0-0.1
						v-9.4c0,0,0-0.1,0-0.1c0,0,0.1-0.1,0.1-0.1c0.1,0,0.2-0.1,0.3-0.1h0.4c0.2,0,0.5,0,0.7,0.1c0.1,0.1,0.2,0.1,0.2,0.2v5.4
						c0,0.3,0,0.5,0,0.8s0,0.5-0.1,0.8l0.5-0.8c0.2-0.2,0.3-0.5,0.5-0.7l4-5.5c0-0.1,0.1-0.1,0.1-0.1c0.1,0,0.1-0.1,0.2-0.1
						c0.1,0,0.2,0,0.2,0h0.6c0.1,0,0.2,0,0.2,0.1c0,0,0.1,0.1,0.1,0.1c0,0,0,0.1,0,0.2L137.4,134.5z M147.4,133.1c0,0.1,0,0.2,0,0.3
						c0,0.1,0,0.2,0,0.2c0,0.1,0,0.1-0.1,0.2c0,0.1-0.1,0.1-0.2,0.2c-0.1,0.1-0.3,0.2-0.4,0.3c-0.2,0.1-0.5,0.3-0.7,0.4
						c-0.3,0.1-0.6,0.2-0.9,0.2c-0.3,0.1-0.6,0.1-0.9,0.1c-0.6,0-1.2-0.1-1.8-0.3c-0.5-0.2-1-0.6-1.3-1c-0.4-0.5-0.6-1-0.8-1.6
						c-0.2-0.7-0.3-1.4-0.3-2.1c0-0.8,0.1-1.6,0.3-2.4c0.2-0.6,0.5-1.2,0.9-1.6c0.4-0.4,0.9-0.8,1.4-1c0.6-0.2,1.1-0.3,1.7-0.3
						c0.6,0,1.1,0.1,1.6,0.3c0.2,0.1,0.4,0.2,0.6,0.3c0.1,0.1,0.3,0.2,0.4,0.3c0.1,0.1,0.1,0.1,0.2,0.2c0,0.1,0.1,0.1,0.1,0.2
						c0,0.1,0,0.2,0,0.2c0,0.1,0,0.2,0,0.3c0,0.2,0,0.4-0.1,0.6c0,0.1-0.1,0.2-0.2,0.2c-0.1,0-0.3-0.1-0.4-0.2
						c-0.2-0.1-0.3-0.3-0.5-0.4c-0.2-0.1-0.5-0.3-0.8-0.4c-0.3-0.1-0.7-0.2-1.1-0.2c-0.8,0-1.5,0.4-1.9,1c-0.5,0.8-0.7,1.8-0.7,2.8
						c0,0.5,0.1,1.1,0.2,1.6c0.1,0.4,0.3,0.8,0.5,1.1c0.2,0.3,0.5,0.5,0.8,0.7c0.3,0.2,0.7,0.2,1.1,0.2c0.3,0,0.7-0.1,1-0.2
						c0.3-0.1,0.5-0.3,0.8-0.4c0.2-0.1,0.4-0.3,0.6-0.4c0.1-0.1,0.2-0.2,0.4-0.2c0,0,0.1,0,0.1,0c0,0,0.1,0.1,0.1,0.1
						c0,0.1,0.1,0.2,0.1,0.2C147.3,132.8,147.3,132.9,147.4,133.1L147.4,133.1z M156.2,125.6c0,0.1,0,0.2,0,0.3c0,0.1,0,0.2-0.1,0.2
						c0,0.1-0.1,0.1-0.1,0.1c0,0-0.1,0-0.1,0H153v8.1c0,0,0,0.1,0,0.1c0,0-0.1,0.1-0.1,0.1c-0.1,0-0.2,0.1-0.3,0.1
						c-0.1,0-0.3,0-0.4,0c-0.1,0-0.3,0-0.4,0c-0.1,0-0.2,0-0.3-0.1c-0.1,0-0.1-0.1-0.1-0.1c0,0,0-0.1,0-0.1v-8.1h-2.8
						c0,0-0.1,0-0.1,0c0,0-0.1-0.1-0.1-0.1c0-0.1-0.1-0.2-0.1-0.2c0-0.1,0-0.2,0-0.4c0-0.1,0-0.2,0-0.3c0-0.1,0-0.2,0.1-0.2
						c0-0.1,0.1-0.1,0.1-0.1c0,0,0.1-0.1,0.1-0.1h7.4c0.1,0,0.1,0,0.1,0.1c0,0,0.1,0.1,0.1,0.1c0,0.1,0,0.2,0.1,0.2
						C156.2,125.4,156.2,125.5,156.2,125.6L156.2,125.6z"/>
					<path class="st1" d="M166.2,134.5c0,0,0,0.1,0,0.1c0,0-0.1,0.1-0.1,0.1c-0.1,0-0.2,0.1-0.3,0.1c-0.1,0-0.3,0-0.4,0
						c-0.1,0-0.3,0-0.4,0c-0.1,0-0.2,0-0.3-0.1c-0.1,0-0.1,0-0.1-0.1c0,0,0-0.1,0-0.1v-5.4c0-0.3,0-0.6,0-0.8l0.1-0.8
						c-0.2,0.3-0.3,0.6-0.5,0.8c-0.2,0.3-0.4,0.5-0.6,0.8l-4,5.4c0,0-0.1,0.1-0.1,0.1c0,0-0.1,0.1-0.1,0.1l-0.2,0.1h-0.3
						c-0.1,0-0.3,0-0.4,0c-0.1,0-0.2,0-0.2-0.1c-0.1,0-0.1,0-0.1-0.1c0,0,0-0.1,0-0.1v-9.4c0,0,0-0.1,0-0.1c0,0,0.1-0.1,0.1-0.1
						c0.1,0,0.2-0.1,0.3-0.1h0.4c0.2,0,0.5,0,0.7,0.1c0.1,0.1,0.2,0.1,0.2,0.2v5.4c0,0.3,0,0.5,0,0.8s0,0.5,0,0.8l0.5-0.8
						c0.2-0.2,0.3-0.5,0.5-0.7l4-5.5c0-0.1,0.1-0.1,0.1-0.1c0.1,0,0.1-0.1,0.2-0.1c0.1,0,0.2,0,0.2,0h0.7c0.1,0,0.2,0,0.2,0.1
						c0.1,0,0.1,0.1,0.1,0.1c0,0,0,0.1,0,0.2L166.2,134.5z M177.1,134.6c0,0,0,0.1,0,0.1c0,0-0.1,0.1-0.1,0.1c-0.1,0-0.2,0-0.3,0.1
						h-0.4c-0.2,0-0.3,0-0.5,0c-0.1,0-0.2,0-0.3-0.1c-0.1,0-0.1,0-0.2-0.1c0,0-0.1-0.1-0.1-0.1l-1-2.4c-0.1-0.3-0.2-0.6-0.4-0.8
						c-0.1-0.2-0.3-0.4-0.5-0.6c-0.2-0.1-0.4-0.2-0.6-0.3c-0.3-0.1-0.5-0.1-0.8-0.1h-0.7v4.2c0,0,0,0.1,0,0.1c0,0-0.1,0.1-0.2,0.1
						c-0.1,0-0.2,0-0.3,0.1c-0.1,0-0.3,0-0.4,0c-0.1,0-0.3,0-0.4,0c-0.1,0-0.2,0-0.3-0.1c-0.1,0-0.1,0-0.1-0.1c0,0,0-0.1,0-0.1v-9.5
						c0,0,0-0.1,0-0.1c0,0,0.1-0.1,0.1-0.1c0.1,0,0.2,0,0.3,0h0.8c0.1,0,0.2,0,0.3,0c0.1,0,0.1,0,0.2,0.1c0,0,0,0.1,0,0.1v3.9h0.7
						c0.2,0,0.5,0,0.7-0.1c0.2-0.1,0.4-0.2,0.6-0.3c0.2-0.1,0.4-0.3,0.5-0.5c0.2-0.2,0.3-0.5,0.4-0.8l0.9-2.2c0,0,0-0.1,0-0.1
						c0,0,0.1-0.1,0.1-0.1c0.1,0,0.2-0.1,0.3-0.1h0.9c0.1,0,0.2,0,0.3,0c0,0,0.1,0,0.1,0.1c0,0,0,0.1,0,0.1c0,0.1,0,0.1,0,0.2
						c0,0.1,0,0.2-0.1,0.2l-0.9,2.1c-0.1,0.3-0.3,0.6-0.5,0.9c-0.1,0.2-0.3,0.4-0.5,0.6c-0.2,0.1-0.3,0.3-0.5,0.4
						c-0.2,0.1-0.3,0.1-0.5,0.2l0,0c0.2,0.1,0.5,0.2,0.7,0.3c0.2,0.1,0.4,0.3,0.6,0.4c0.2,0.2,0.4,0.4,0.5,0.6
						c0.2,0.3,0.3,0.5,0.4,0.8l1,2.4l0.1,0.1v0.1c0,0,0,0.1,0,0.1L177.1,134.6z M187.7,134.5c0,0,0,0.1,0,0.1c0,0-0.1,0.1-0.1,0.1
						c-0.1,0-0.2,0.1-0.3,0.1c-0.1,0-0.3,0-0.4,0c-0.1,0-0.3,0-0.4,0c-0.1,0-0.2,0-0.3-0.1c-0.1,0-0.1,0-0.1-0.1c0,0,0-0.1,0-0.1
						v-5.4c0-0.3,0-0.6,0-0.8s0-0.6,0.1-0.8c-0.2,0.3-0.3,0.6-0.5,0.8l-0.6,0.8l-4,5.4l-0.1,0.1c0,0-0.1,0.1-0.1,0.1l-0.2,0.1h-0.3
						c-0.1,0-0.3,0-0.4,0c-0.1,0-0.2,0-0.2-0.1c-0.1,0-0.1,0-0.1-0.1c0,0,0-0.1,0-0.1v-9.4c0,0,0-0.1,0-0.1c0,0,0.1-0.1,0.1-0.1
						c0.1,0,0.2-0.1,0.3-0.1h0.4c0.2,0,0.5,0,0.7,0.1c0.1,0.1,0.2,0.1,0.2,0.2v5.4c0,0.3,0,0.5,0,0.8s0,0.5-0.1,0.8l0.5-0.8
						c0.2-0.2,0.3-0.5,0.5-0.7l4-5.5c0-0.1,0.1-0.1,0.1-0.1c0.1,0,0.1-0.1,0.2-0.1c0.1,0,0.2,0,0.2,0h0.7c0.1,0,0.2,0,0.2,0.1
						c0,0,0.1,0.1,0.1,0.1c0,0,0,0.1,0,0.2L187.7,134.5z"/>
				</g>
			</g>
		</g>
	</g>
</g>
</svg>
