<svg xmlns="http://www.w3.org/2000/svg" viewBox="0 0 247.16 138.59"><defs><style>.cls-1{fill:#009035;}.cls-1,.cls-2,.cls-3,.cls-4,.cls-5{fill-rule:evenodd;}.cls-2{fill:#007023;}.cls-3{fill:#006422;}.cls-4{fill:#fff;}.cls-5{fill:#533a10;}</style></defs><title>Asset 2</title><g id="Layer_2" data-name="Layer 2"><g id="svgRoot"><g id="rootGroup"><g id="Layer1000"><g id="Layer1001"><g id="Layer1002"><path class="cls-1" d="M8.35,100.6a6.3,6.3,0,0,0-2.09-4.85c-1.27-3.87,2.39-6.14,8.41-8.1,2.22-.72,3.37-2,3.41-2.79.05-1-1.33-1.63-4.18-.68-2.38.8-9.82,5.93-10,8.6L1.8,87.62c3.29-6.51,8.19-8.85,12.38-9.56l5.78-1c2-.11,2.84-2-.21-2.7-8.33-1-13.83,3.45-18,9.41C1.07,83,.7,82.52.12,81.89c-.35-1.45.13-3.48.56-5.59.38-1.92.56-3.68,2.26-4.76,6-3.79,14.19-5.27,20.3-2.71,3,1.25,5.16.12,3-1.43-6.44-4.58-13.94-4.17-21.31-.29-.91.23-.18-.77,0-1.6a30.08,30.08,0,0,1,2.18-4.86,10.26,10.26,0,0,1,3.63-3.82,13.35,13.35,0,0,1,6.8-1.66,12.72,12.72,0,0,1,11,5.82c1.31,1.92,2,3.36,3.44,2.7.48-1.61-.39-3-1.78-4.56-4.66-5.37-10.33-6.69-13.12-6l7.53-3.94c4.3-2.16,9.63-.42,12,8,.37,1.29.22,2.11.49,3.38s.78,1.16,1.84,0c.21-.22,2.76-4.46-2.77-8.82l-3.3-2.61c3.88.15,7.35.17,11.92,1.75C47.45,51.8,55,64.49,43.28,66.5c6.86.88,9.2,12.93,8.22,17-.75,3.06-6,7.06-6.4,7,1.71-6-.86-9-3.15-12.42-.37-.7-2.21-.92-2.18.42.89,2.52,2.47,4,3,6.63L44,90.31c-1.51,2.15-5.69,4.49-8.47,4,2.91-3.72,3.18-11.81-1.31-12.47-.85-.12-1.78,2.1-1.22,3.91s.39,10.83-2.39,11.58c-3.92.86-.92,2-9.53,1.67-.63,0,4.86-4.23,2.89-10.58-3-.19-5.18,1.2-4.79,3.31.69,3.8-.52,8.5-4.3,10.4C11.28,102.2,10.74,99,8.35,100.6Zm26.1-22.89c2.22-.61-1-5.67-2.62-2C31.06,77.43,31.87,78.41,34.45,77.71Zm.21-14c-.89,1.46.16,3.36,2.54,1.81.25-.16.48-.23.43-1.38C37.56,62.66,35.26,62.74,34.66,63.73ZM39.32,75.4c.5-.12,1-1.27.71-2.41s-.58-2.42-1.4-2.32c-1.52.17-1.21,1-1.24,2.14C37.35,74.19,38.44,75.61,39.32,75.4ZM28.53,68.26a1.77,1.77,0,0,0,2.54,1.23,1.46,1.46,0,0,0-.26-2.71S27.92,66.42,28.53,68.26Z"/></g><path class="cls-2" d="M8.49,100.5A6.31,6.31,0,0,0,6.4,95.75c-1.28-3.87,2.38-6.14,8.41-8.1a6.66,6.66,0,0,0,3.4-2.79c6.31-6.45,1.39-6-3.43-4.37C11.66,81.55,2.9,88.27,4,92.78L1.94,87.62c3.29-6.51,8.19-8.85,12.38-9.56l5.78-1c3,.87,8.9-2.74,5.29-4C12.59,63.28,3.58,77.65.25,81.89c-.34-1.45.14-3.48.57-5.59.38-1.92.56-3.68,2.26-4.76,6-3.79,14.19-5.27,20.3-2.71,3,1.25,9.33,1.64,8.9-.37-.32-1.48-1.44-1.86-2.14-3C26.29,59.4,18,57.68,12.51,59.23c-4.68,1.32-8.06,6.89-5.23,1.42a9.33,9.33,0,0,1,3.62-3.82,13.38,13.38,0,0,1,6.81-1.66,12.72,12.72,0,0,1,11,5.82c.66,1,2.36,3.24,3.33,4.68s1.15,2,1.83,1.64c2.16.29,5.62-1.43,3.4-4-4.19-4.83-4.78-9-7.54-10.39C25.91,51,26,52.17,20,51.74l4.82-2.52c4.31-2.16,9.64-.42,12.05,8,.37,1.29.21,2.11.49,3.38s2.5,4.62,4,4.13c4.06-1.35,4.19-5.55,3.45-7.72-1.41-4.11-7.68-6.44-8.51-7.12-1.21-1,5.44-.1,8.78,1,2.38.82,9,11.62.87,14.91a3.17,3.17,0,0,0-1.25.41c-8.91.49-17,7.71-26.24,20.59-2.94,4.11-6.7,8.69-9.81,13.58l0,0Z"/><g id="Layer1003"><path class="cls-3" d="M8.35,100.6c3.85-5.48,8.11-10.45,11.37-15C28.2,73.76,36.27,67,43.28,66.5c6.86.88,9.2,12.93,8.22,17-.45,1.85-2.57,4-4.25,5.47-.9-7,2.74-15.66-5.88-21.84,3.52,2.8,6.84,19.8,2.39,12.62-.89-1.44-3.56-3.81-4-1.28.89,2.52,2.47,4,3,6.63L44,90.31c-1.51,2.15-3,3.35-5.79,2.81C44,90.49,39,78.07,34.48,78l-5.08-.1c-.66,1.12,2.32,3.55,3.17,6.25,2.56,8.08,0,12.42-5.5,13.71,3.68-6.19,2.17-11.7-4.15-12-.46,0-3.52,1.35-3.84,2.81-.62,2.81.44,4.09.1,6.75a9.09,9.09,0,0,1-4.35,6.67C11.28,102.2,10.74,99,8.35,100.6Zm26.1-22.89c2.22-.61-1-5.67-2.62-2C31.06,77.43,31.87,78.41,34.45,77.71Zm4.87-2.31c.5-.12,1-1.27.71-2.41s-.58-2.42-1.4-2.32c-1.52.17-1.21,1-1.24,2.14C37.35,74.19,38.44,75.61,39.32,75.4Z"/><path class="cls-3" d="M39.27,68.16c9.49-1.72,13.14-2.58,16.75,3,8.92,13.92,4.4,43.5.79,60.29a3.37,3.37,0,0,0,3.55,0c3.1-21.58,5.43-48.2-1.72-60.45-3.92-6.71-10-6.67-16.31-4.2-.19.08-1.11-.52-1.31-.45C40.21,66.74,40.1,67.78,39.27,68.16Z"/></g><path class="cls-3" d="M66.76,134.82c3.4-9.12,12.17-44.69,14.2-72.64a276.43,276.43,0,0,0,.23-32.5C80.22,6.69,68.6,7,61,12.71c7.07-2.16,12.25-3,15.16,4.11,1.47,3.61,2.35,9.27,2.6,17.85a305.58,305.58,0,0,1-3.13,48.78c-3.06,21-8.37,41.58-13.58,51.43C64.26,135.59,64.87,135.85,66.76,134.82Z"/><path class="cls-1" d="M49.39,51.38a8.59,8.59,0,0,0-4.48-3.63c-2.53-2.42-1.6-7.34,2.19-11.27,1.39-1.44,2.51-2.74,2.24-3.33-.38-.8-1.67-.7-3.45,1.17C44.4,35.88,40,42,41,44.12c-4-4.54-4.87-5.5-6.77-11.71-.68-2.21,6.94-11.12,10.91-10.3,2.79.58,4-2.67,2-3.85-2.55-1.55-10,1.35-13.82,9-.6.53-.45-.52-.61-1.24a26.21,26.21,0,0,1-.31-4.57,8.78,8.78,0,0,1,1.22-4.37,11.43,11.43,0,0,1,4.5-4,10.94,10.94,0,0,1,10.71,0c1.77.93,2.44,1.73,3.24.67-.29-1.42-1-2.09-2.73-2.75-5.71-2.2-8.7-1.82-10.53-.15L41,5.76C43.44,2.38,48.19,1.55,53.41,7c.8.84,1,1.52,1.73,2.37s1.06.57,1.41-.72c.07-.26.3-4.5-5.66-5.59l-3.57-.65c6.34-6,23.28.3,14.86,9,5.26-.54,10,6.43,10.91,9.9.3,1.18.15,11.1-4.06,12.4-.61-3.29-1-6.52-3-8.44-.85-.85-1.82-1.55-2.77-1a1.81,1.81,0,0,0-.13,2.88c3.25,3,4.82,6.31,5,8.68.07.93-1.08,4.6-4,6.74l-2.49,1.82c1.55-2.86.06-5.62-1.81-8.5-1.58-2.44-3-3.26-3.55-3-.86.36-1.6,1.12.14,2.83,7.47,7.33,2.21,12,0,12-.54,0,1.12-4.34-2.94-8.37-.21,3.21,2.94,5.47,1.41,10.55C52.26,51.41,50.57,49.23,49.39,51.38Zm6.81-26c.55.54,1.17,2.92,2.17,1.09.47-.85-1.11-2-1.21-2.33C56.81,23,55,24.19,56.2,25.35Zm-2.09-6.28c0-.52-.93-.76-1.17-.87a.93.93,0,0,0-.88-.09c-.37,0-.6.34-1.09.69-.79.56.68,1.09,1,1.64s1.28.51,1.73-.29A1.8,1.8,0,0,0,54.11,19.07Zm2.8-6.93c.23,1.09.6,1.26,1.09,1.41.31.1.51-.17.67-.42a2.83,2.83,0,0,0,.2-.28c.15-.23.28-.39-.25-1.3-.64-1.09-1.68-.83-1.67,0A.86.86,0,0,0,56.91,12.14Zm5.85,7.59c.34-.29.24-1.36-.43-2.12s-1.51-1.87-2.1-1.47c-1.08.75-.33,1.35.1,2.22C60.86,19.42,62.18,20.24,62.76,19.73Zm-4.66,2c1,2.24,4.1.94,1.26-1.77-.7-.67-.92-.34-1.36-.2S57.45,20.3,58.1,21.7Zm-7.5,3.64c.85.59,3.71-1,2.38-1.06,0-.19-.29-.29-1.29-.12,0,0-2.43-.89-1.82.78C50,25.23,50.25,25.34,50.6,25.34Z"/><path class="cls-4" d="M50.6,25.34c.85.59,3.71-1,2.38-1.06,0-.19-.29-.29-1.29-.12,0,0-2.43-.89-1.82.78C50,25.23,50.25,25.34,50.6,25.34Z"/><path class="cls-3" d="M49.39,51.38v0l0-.18a3.82,3.82,0,0,1-.16-1.11c0-.22,0-.43.07-.65C51.15,32.66,55,18,62.58,11.37l-.07,0c5.13-.22,9.71,6.52,10.58,9.92.3,1.18.15,11.1-4.06,12.4,1-4.68,4.43-13.66.25-12.81-2.85.59-3,.36-4.65-5.46-.76-2.74-2.51-1.26-3.89-.22-1.75,1.33-2.4,2,1.32,6.67,1,1.23-3.63-.06,1.12,5.3,2.91,3.29,4.82,6.31,5,8.68.07.93-1.08,4.6-4,6.74l-2.49,1.82c4.32-4.33,2.88-9.45,1.24-12.47-1.12-2.05-2.75-8.39-4.44-8.78s-5.33.32-.6,5.66c1.73,1.95-5.57,1.88-1.42,6.88,3.27,3.93,4.28,6.53,3.68,8.6-1.11,3.82-1.65-8.64-8.2-8.36-1,3.5,4.51,8.89,3,14C52.26,51.41,50.57,49.23,49.39,51.38Z"/><path class="cls-2" d="M59.19,14.87a5.85,5.85,0,0,0-.63-1.64.42.42,0,0,1-.42.1c-.52-.17-.92-.34-1.17-1.51a1.18,1.18,0,0,1,0-.26c-2.78-2-2.4-3.45-3.4-4.49a15.32,15.32,0,0,0-6-3.69,5.59,5.59,0,0,0-4.31.43,6.16,6.16,0,0,0-2.07,1.86l-1.8,4.07c8.11-6.12,9.77-2,13.22.91,2.23,1.89,1.81,6.09,2.78,7.61A17.16,17.16,0,0,0,51,14.62a9.66,9.66,0,0,1-2.43-1.2,10.68,10.68,0,0,0-8.78-.71,11.34,11.34,0,0,0-1.59.73,13.87,13.87,0,0,0-2.67,1.84,9.46,9.46,0,0,0-1.7,2,8.45,8.45,0,0,0-1.16,4.2A25,25,0,0,0,33,26c0,.16.07.55.11.83l.07-.14c2.18-12.31,12.38-14.85,18.18-8.2a1,1,0,0,1,1.39-.22c.25.12,1.27.37,1.24.93a1.59,1.59,0,0,1-1,1.58,15,15,0,0,1,.81,1.66c-2.63-.9-6.6.45-8.75,0s-5.11,2.16-6.47,3.5a23.29,23.29,0,0,0-2.42,2.79c-.23.33-.46.66-.67,1-.32.51-1.14,1.93-.94,2.57.32,1,.65,2.12,1,3.18.2.54,2.07,4.09,2.31,4.62C40.42,38.91,40,28,51.7,26.77c.39,2.79-1.77,5.86-2,6.82a4.4,4.4,0,0,1-.92,1.59c-.33.41-.69.8-1,1.11l-.43.44a12.76,12.76,0,0,0-3.23,5.41,5.89,5.89,0,0,0,.41,4.6,4.2,4.2,0,0,0,.56.7,9.34,9.34,0,0,1,4,2.84,105.37,105.37,0,0,1,1.63-13.93q.2-1,.42-2.07c.1-.44,2.54-8,2.64-8.43C54.15,22.41,59.17,15,59.19,14.87Zm-.14-.57s.1.56.19.46c.55-.57,2.68-3.45,2.78-3.57C69.82,2.73,54.2-3,47.77,2.2,54.86,1.32,61.76,1.84,59.05,14.3ZM52.73,24.58h-.07l0,0h-.31l0,0h0l0,0H51.9c-.81.34-1.81.5-2-.1-.61-1.67,1.81-.78,1.82-.78C53.12,23.92,53.19,24.22,52.73,24.58Z"/><path class="cls-3" d="M62,11.12l.57.25c-7.43,6.86-11.33,21.93-13.42,38.9v.14l-.07-.13C49.56,34.87,53.15,20.72,62,11.12Z"/><path class="cls-3" d="M8.41,100.43c3.12-4.9,6.89-9.49,9.84-13.61C26.93,74.68,34.64,67.21,43,66c.54-.08,3.74-.19,4.29-.21l-3.69,1C35.38,67,28.12,74.55,18.47,87.3c-2.72,3.59-6.63,8.61-9.65,12.78C8.48,100.55,8.49,100.39,8.41,100.43Z"/><path class="cls-4" d="M58.1,21.7c1,2.24,4.1.94,1.26-1.77-.7-.67-.92-.34-1.36-.2S57.45,20.3,58.1,21.7Z"/></g><path class="cls-5" d="M156.36,33.92l.63-.46q.58-.45,1-.72a3.45,3.45,0,0,1,.73-.4h0l.5-.11a4.52,4.52,0,0,1,.53-.06,1,1,0,0,1,.72.23l0,0a1.31,1.31,0,0,1,.37.63v0a1.21,1.21,0,0,1-.14.79,5.51,5.51,0,0,1-.6,1c-.26.37-.58.79-.94,1.25s-.79,1-1.22,1.53l0,0-1.47,1.8-1.6,2c-.55.68-1.13,1.41-1.73,2.18s-1.18,1.54-1.74,2.29q-1.11,1.5-2.25,3.12c-.77,1.09-1.53,2.2-2.28,3.32s-1.51,2.29-2.24,3.49-1.45,2.41-2.14,3.66-1.36,2.5-2,3.8-1.27,2.58-1.88,3.92-1.16,2.66-1.69,4-1,2.57-1.39,3.86h.1l.52.07h0l.37,0s0,0,.1-.07.33-.16.58-.3l.84-.48,1-.58c1.21-.71,2.39-1.45,3.58-2.18l1.2-.72,1.07-.65.93-.56.71-.44h0l.44-.26a.46.46,0,0,1,.28-.06h0a1.6,1.6,0,0,1,.7.27l.47-.73c.47-.7,1-1.4,1.47-2.07s1-1.33,1.59-2,1.1-1.19,1.66-1.73,1.14-1,1.71-1.49A16.58,16.58,0,0,1,156.65,60a8.94,8.94,0,0,1,1.72-.79h0A5.47,5.47,0,0,1,160,58.9a4.13,4.13,0,0,1,1.24.19,3.34,3.34,0,0,1,1.05.57,2.54,2.54,0,0,1,.74,1,3.86,3.86,0,0,1,.23,1.37,2.68,2.68,0,0,1-.06.52c0,.17-.1.38-.17.61s-.16.46-.25.69l-.31.74c-.23.51-.48,1-.77,1.57l-.26.48h0a2.45,2.45,0,0,1,.78.11,1.88,1.88,0,0,1,.66.34,1.49,1.49,0,0,1,.47.67h0a2.34,2.34,0,0,1,.14.87,4.16,4.16,0,0,1-.06.67,6.63,6.63,0,0,1-.2.76h0c-.17.52-.35,1-.55,1.59-.1.28-.2.55-.28.8s-.18.54-.26.79A6.91,6.91,0,0,0,162,74a4,4,0,0,0-.05.58,2.34,2.34,0,0,0,0,.38,1.32,1.32,0,0,0,.09.3.1.1,0,0,0,.05.07.35.35,0,0,0,.2,0,4.3,4.3,0,0,0,1.92-1.12c.49-.39,1-.82,1.54-1.29s1.07-1,1.64-1.48a.44.44,0,0,1,.33-.11,1,1,0,0,1,.64.32,1.24,1.24,0,0,1,.25.39.08.08,0,0,1,0,0,1.23,1.23,0,0,1-.35,1.37l0,0h0q-.36.29-.72.6l-.81.72-.91.78-.93.75c-.33.25-.65.48-1,.69s-.67.42-1,.59a5.86,5.86,0,0,1-1,.42,3.08,3.08,0,0,1-.9.15,2,2,0,0,1-2-1.34,5.4,5.4,0,0,1-.39-1.31,8.31,8.31,0,0,1-.13-1.53c0-.27,0-.58.05-.92s.09-.69.17-1.09.13-.7.19-1v0l-.07.06h0l-.65.55-.74.63,0,0-.82.7-.91.79-.9.79-.82.75-.87.8-1,.93L151,78l-1.11.91-1,.83-1,.7a5.73,5.73,0,0,1-.85.51,1.64,1.64,0,0,1-.72.2,1.3,1.3,0,0,1-.8-.26h0a2,2,0,0,1-.57-.68h0a3.58,3.58,0,0,1-.34-.88,4.35,4.35,0,0,1-.11-1,8.42,8.42,0,0,1,.2-1.72,13.12,13.12,0,0,1,.56-1.93c.24-.68.53-1.37.85-2.07l.36-.75-.44.38-1.27,1.08c-.9.76-1.89,1.58-3,2.46-.53.44-1.07.85-1.6,1.25s-1.06.78-1.57,1.13-1,.69-1.49,1-.93.57-1.36.82a8.27,8.27,0,0,1-1.18.57,2.79,2.79,0,0,1-1,.21,3.11,3.11,0,0,1-1.9-.69,2.31,2.31,0,0,1-.72-.94h0a3.34,3.34,0,0,1-.23-1.27,5.63,5.63,0,0,1,.12-1.07,22.06,22.06,0,0,1,1.52-4.52c.26-.59.53-1.19.82-1.79s.59-1.22.92-1.89.67-1.31,1-1.93.69-1.23,1.05-1.84l1.2-2.26,1.17-2.17c.4-.73.8-1.45,1.21-2.16,1.94-3.39,4.12-6.44,6.22-9.71-3,3.6-5.84,7.18-9,10.72-.68.76-1.35,1.53-2,2.29-1.9,2.22-3.55,4.31-5.59,6.5a97.08,97.08,0,0,1-7.53,7.38,50.28,50.28,0,0,1-9.42,6.6,37.14,37.14,0,0,1-5.29,2.33,30.27,30.27,0,0,1-4.88,1.28,17.43,17.43,0,0,1-4.25.23h0a14.48,14.48,0,0,1-3.48-.78,9.35,9.35,0,0,1-2.71-1.52A12.23,12.23,0,0,1,87.31,72.6C89.06,60,102.67,47.71,115.79,47h.06a11,11,0,0,1,6.33,2.47l0,0a7.07,7.07,0,0,1,1.08,1.18c1.72,2.39,1.53,5.27.33,7.84a13.07,13.07,0,0,1-1.81,2.78A28.17,28.17,0,0,1,119.2,64a41.55,41.55,0,0,1-3.28,2.71,1.8,1.8,0,0,1-.37.28.89.89,0,0,1-.46.13.79.79,0,0,1-.84-.84.46.46,0,0,1,0-.21,2.67,2.67,0,0,1,.43-.57h0l.24-.26.27-.32.06-.06a22.33,22.33,0,0,0,2.21-2.08,15.57,15.57,0,0,0,1.64-2.09,14.06,14.06,0,0,0,1.13-2.12c1.16-2.75,1.45-6.67-1.7-8.23a6.17,6.17,0,0,0-2.49-.6h0a9.42,9.42,0,0,0-2.29.17,12,12,0,0,0-2.39.76A19.4,19.4,0,0,0,109,51.88c-6.57,4-14,13.8-15,21.49v0h0a14.15,14.15,0,0,0-.3,4h0a8,8,0,0,0,.86,3.08,5.67,5.67,0,0,0,4.92,2.89,17.15,17.15,0,0,0,3.83-.59c5.74-1.55,12.48-6.2,17-9.93,1.37-1.12,2.26-2.35,3.57-3.57,6.65-6.2,12.1-13.63,18-20.51S154.74,35,156.36,33.92ZM114.3,66a.41.41,0,0,1,.37-.21Zm132.09,7.44-.71.6-.82.72c-.59.53-1.21,1-1.84,1.53-.32.25-.64.48-1,.69s-.67.42-1,.59a6.23,6.23,0,0,1-1,.42,3.09,3.09,0,0,1-.91.15,2,2,0,0,1-1.95-1.34v0a6,6,0,0,1-.39-1.28,9.28,9.28,0,0,1-.13-1.53,8,8,0,0,1,.06-.92c0-.33.09-.69.16-1.09s.14-.72.2-1v0L237,71h0l-.63.54-.76.64,0,0c-.45.39-1,.88-1.72,1.49l-.9.79-.82.75-.88.8-1,.93-1.13,1-1.1.91-1.06.83-1,.7a5.73,5.73,0,0,1-.85.51,1.64,1.64,0,0,1-.73.2,1.27,1.27,0,0,1-.79-.26h0a2,2,0,0,1-.57-.68h0a3.58,3.58,0,0,1-.34-.88,4.35,4.35,0,0,1-.11-1,8.22,8.22,0,0,1,.14-1.43,2.93,2.93,0,0,1,0-.29l-.28.23-.63.5-.56.38c-.33.21-.69.43-1.08.65L219,79.1a6.76,6.76,0,0,1-1.46.61,6,6,0,0,1-1.5.2,3.18,3.18,0,0,1-1-.14,3.41,3.41,0,0,1-.89-.41,2.21,2.21,0,0,1-.73-.86l0,0a4.4,4.4,0,0,1-.34-1.22h0a5.3,5.3,0,0,1,0-1.38,9.06,9.06,0,0,1,.38-1.61c.19-.57.39-1.12.6-1.66s.37-.88.57-1.31l-.22,0a24.45,24.45,0,0,0-2.49-.12h-1.3l-1.26,0-.84.06-.86,1.42-.95,1.59h0c-.47.76-.89,1.45-1.25,2s-.76,1.27-1.08,1.82l-.84,1.43-.52.92a.41.41,0,0,1-.37.22h0a1,1,0,0,1-.33-.07h0l-.32-.15c-.26-.13-.53-.29-.82-.47-1.47-.79-2.54-2.36-3.91-2.66l-.6-.08c-8,13.66-16.64,23.32-30.27,32.25a42.12,42.12,0,0,1-12.61,5.18,15.45,15.45,0,0,1-3.45.42,4.29,4.29,0,0,1-1.47-.26,4.5,4.5,0,0,1-1.33-.74,3.3,3.3,0,0,1-1-1.27,4,4,0,0,1-.32-1.67,9.49,9.49,0,0,1,.54-3,16.29,16.29,0,0,1,1.61-3.29h0a32.66,32.66,0,0,1,2.49-3.41,45.54,45.54,0,0,1,3.21-3.48q1.78-1.75,3.83-3.49T162.28,91c1.55-1.15,3.14-2.26,4.78-3.35s3.31-2.13,5-3.16,3.45-2,5.21-2.91,3.53-1.78,5.31-2.59,3.53-1.54,5.23-2.19,3.25-1.18,4.82-1.65c.26-.49.5-1,.74-1.47s.53-1.07.78-1.6.49-1.06.71-1.59c.12-.27.23-.54.34-.81l-.34.29c-.23.2-.52.43-.86.71l-1.06.84-1.2.94-1.29,1c-.46.34-.91.67-1.34,1h0c-.44.31-.87.6-1.3.88s-.87.56-1.25.79-.77.45-1.14.65h0a6.94,6.94,0,0,1-1,.46h0a2.3,2.3,0,0,1-.77.16,2.4,2.4,0,0,1-1-.23,3.38,3.38,0,0,1-.92-.65,2.93,2.93,0,0,1-.51-.65v0l-.06-.12q-.67.6-1.41,1.2c-.51.41-1,.81-1.56,1.19s-1.08.74-1.63,1.07-1.08.61-1.61.87a6.67,6.67,0,0,1-1.49.54,2.56,2.56,0,0,1-1.2,0,2.84,2.84,0,0,1-1.08-.4h0a4.29,4.29,0,0,1-1-.9,3.15,3.15,0,0,1-.66-1.48,6.69,6.69,0,0,1,0-2,4,4,0,0,1,.26-1.07,8.27,8.27,0,0,1,.62-1.22h0q.75-1.27,1.8-2.76h0l1-1.46,1.06-1.45c.34-.47.66-.93.95-1.39s.55-.88.77-1.29h0a7.83,7.83,0,0,0,.52-1.13,4.05,4.05,0,0,0,.22-.92.78.78,0,0,0-.1-.52,1.05,1.05,0,0,0-.49-.35,1.81,1.81,0,0,0-.66-.06,2.72,2.72,0,0,0-.78.2h0a8.28,8.28,0,0,0-1.92,1.22q-.56.43-1.11.93t-1.17,1c-.82.75-1.62,1.5-2.42,2.26a.41.41,0,0,1-.59,0,.39.39,0,0,1-.11-.22h0l-.19-1a.42.42,0,0,1,.13-.37c.35-.39.72-.79,1.13-1.2l1.38-1.35c.5-.47,1-.91,1.54-1.32s1.05-.8,1.58-1.15a15.42,15.42,0,0,1,1.6-.91,10.77,10.77,0,0,1,1.56-.65,4.78,4.78,0,0,1,1.52-.25,3.45,3.45,0,0,1,1.32.31,2.75,2.75,0,0,1,.85.34,2.78,2.78,0,0,1,.72.61,3,3,0,0,1,.51.82,3.64,3.64,0,0,1,.26,1,4.43,4.43,0,0,1,0,1.09A5.91,5.91,0,0,1,181,64.7a7.45,7.45,0,0,1-.57,1.23,13.67,13.67,0,0,1-.86,1.28h0c-.61.73-1.23,1.45-1.85,2.16s-1.2,1.36-1.77,2-1.09,1.21-1.56,1.75-.87,1-1.23,1.52a7.2,7.2,0,0,0-.8,1.26,3.27,3.27,0,0,0-.3,1,1.05,1.05,0,0,0,.21.72,2.25,2.25,0,0,0,.85.68,1.22,1.22,0,0,0,.62.05,3.76,3.76,0,0,0,1-.34q.6-.3,1.23-.69c.42-.27.85-.57,1.27-.9s.87-.69,1.29-1,.84-.73,1.23-1.09l.8-.77c.21-.22.41-.42.58-.61s.15-.34.24-.52.23-.44.36-.67c.27-.48.58-1,.92-1.51s.68-1,1-1.52c.73-1,1.44-1.92,2.11-2.7q.53-.58.87-.9a1.26,1.26,0,0,1,.75-.39,1.36,1.36,0,0,1,.65.18l0,0a2.15,2.15,0,0,1,.54.45,1.76,1.76,0,0,1,.6,1.1,1.5,1.5,0,0,1-.22.61c-.13.24-.3.54-.54.91l-.73,1.18,0,0-.76,1.22h0l-.79,1.24c-.21.33-.45.72-.73,1.15s-.4.64-.51.83-.12.13-.12.16,0,.13,0,.18h0V74h.11a1.17,1.17,0,0,0,.43-.12,4.65,4.65,0,0,0,.76-.42l1-.66,1.08-.78,1.15-.86c.41-.31.79-.61,1.14-.89l1.1-.85,1-.73h0c1.16-.91,2.17-1.73,3-2.48a25.32,25.32,0,0,0,2.12-2c.58-.62,1-1.08,1.38-1.39a1.7,1.7,0,0,1,.93-.56,1,1,0,0,1,1,.58,2.78,2.78,0,0,1,.25,1.29,17.16,17.16,0,0,1-1,5.34c-.32.95-.7,1.94-1.15,3-.37.84-.78,1.69-1.23,2.56l.67.14a5.47,5.47,0,0,1,1.1.41h0a2.21,2.21,0,0,1,.84.71,1.42,1.42,0,0,1,.2.41l0-.07c.28-.49.6-1.05,1-1.67s.78-1.28,1.22-2h0l2.3-3.58,0,0,.33-.51h0c.09-.14.2-.3.31-.49h0L207.47,66l1.5-2.17c.46-.66.92-1.3,1.36-1.92l1.17-1.55c.79-1,1.36-1.53,1.69-1.53a1.53,1.53,0,0,1,.66.16l0,0a2.18,2.18,0,0,1,.52.41,3.26,3.26,0,0,1,.39.5,1.79,1.79,0,0,1,.2.54s0,0,0,.06h0v0a.36.36,0,0,1-.06.2c-.05.1-.11.22-.19.36l-.59,1-.91,1.51,0,0-1.07,1.76v0L210,68.84h1l1.15.05,1.13.07,1.07.11h0l.83.13h0l.35.08q.28-.51.57-1h0c.23-.39.41-.69.53-.91L217,67a1.71,1.71,0,0,0,.32-.56,1,1,0,0,0,0-.46.22.22,0,0,1,0-.08h0a2.69,2.69,0,0,1,.05-.44c0-.14.09-.31.16-.49a3.76,3.76,0,0,1,.25-.54,4,4,0,0,1,.36-.51,3.27,3.27,0,0,1,.44-.47h0a3.75,3.75,0,0,1,.51-.38,2.34,2.34,0,0,1,.6-.28,2.43,2.43,0,0,1,.65-.09,2.58,2.58,0,0,1,1.52.47,2.18,2.18,0,0,1,.51.49,1.3,1.3,0,0,1,.26.61h0c0,.17,0,.38,0,.65s0,.54,0,.86h0a4.62,4.62,0,0,1-.11.91h0a2.11,2.11,0,0,1-.3.71l0,.05h0a3.3,3.3,0,0,0-.22.27c-.13.16-.26.33-.4.53h0l-.52.71-.57.78-.61.82,0,0c-.16.22-.36.49-.58.81l-.54.77-.42.61h0c-.26.38-.52.77-.76,1.17s-.48.8-.71,1.22v0a4.94,4.94,0,0,0-.44,1h0a1.58,1.58,0,0,0-.08.68.17.17,0,0,1,0,.07h0a.29.29,0,0,0,0,.09.82.82,0,0,0,.1.17h0a.18.18,0,0,0,.08.07.33.33,0,0,0,.15,0,3,3,0,0,0,.77-.13,6,6,0,0,0,1-.41c.4-.19.79-.39,1.17-.61s.78-.46,1.17-.72h0l1.11-.77,1-.76.58-.45.4-.33c.18-.42.38-.84.59-1.26h0c.22-.44.46-.9.72-1.37a34.48,34.48,0,0,1,2.76-4.2q.78-1,1.59-2c.55-.62,1.1-1.19,1.66-1.73s1.14-1,1.71-1.49A16.58,16.58,0,0,1,234.77,60a8.68,8.68,0,0,1,1.72-.79h0a5.46,5.46,0,0,1,1.64-.27,4.2,4.2,0,0,1,1.25.19,3.57,3.57,0,0,1,1.05.57,2.52,2.52,0,0,1,.73,1,3.64,3.64,0,0,1,.24,1.37,2.68,2.68,0,0,1-.06.52h0a3.48,3.48,0,0,1-.17.6c-.07.23-.16.46-.24.69l-.31.74v0c-.11.25-.23.5-.36.76s-.27.54-.4.79l-.26.48h0a2.45,2.45,0,0,1,.78.11,2,2,0,0,1,.66.34,1.49,1.49,0,0,1,.47.67v0a2.49,2.49,0,0,1,.13.85,3.32,3.32,0,0,1-.07.67,6.49,6.49,0,0,1-.19.76c-.08.25-.17.51-.26.78s-.2.57-.29.81l-.29.8c-.09.27-.17.54-.25.79a6.91,6.91,0,0,0-.17.69,4,4,0,0,0-.05.58,2.34,2.34,0,0,0,0,.38,1.32,1.32,0,0,0,.09.3.1.1,0,0,0,.05.07.35.35,0,0,0,.2,0,4.41,4.41,0,0,0,1.92-1.12c.49-.39,1-.82,1.54-1.29s1.07-1,1.64-1.48l.07-.05a1,1,0,0,1,1-.14.93.93,0,0,1,.37.34,1,1,0,0,1,.14.46h0a1.66,1.66,0,0,1-.76,1.42Zm-32-2.21ZM239.29,62c0-.09,0-.13-.13-.13a1.6,1.6,0,0,0-.58.17,6.52,6.52,0,0,0-1,.6c-.4.28-.82.6-1.27,1s-.91.77-1.42,1.22-1,.94-1.51,1.45-1,1.07-1.55,1.64c-1,1.16-2,2.33-2.88,3.49h0c-.58.76-1.1,1.48-1.55,2.16a20.71,20.71,0,0,0-1.14,1.9,9.46,9.46,0,0,0-.7,1.55,3.13,3.13,0,0,0-.22,1v0l.57-.4c.59-.42,1.27-.94,2.05-1.56l1.2-1,1.24-1.07,2.3-2h0l1.06-1,1-1,1-.92h0l.81-.71A9.51,9.51,0,0,1,238.36,64,5.54,5.54,0,0,0,239.29,62Zm-48.1,15.76c-1.19.4-2.4.85-3.62,1.34-1.6.64-3.22,1.35-4.88,2.14s-3.29,1.63-4.94,2.52-3.27,1.82-4.89,2.8-3.2,2-4.74,3-3.05,2.12-4.49,3.22-2.82,2.2-4.1,3.3-2.46,2.18-3.55,3.26-2.07,2.15-2.94,3.2a32.07,32.07,0,0,0-2.28,3.09,14.82,14.82,0,0,0-1.43,2.84,7.35,7.35,0,0,0-.47,2.45,2.35,2.35,0,0,0,.12.77,2.22,2.22,0,0,0,.36.63,1.49,1.49,0,0,0,.53.41h0a2,2,0,0,0,.75.13,8.17,8.17,0,0,0,1.82-.23,15,15,0,0,0,2.17-.73,52.15,52.15,0,0,0,10.51-6.31c8.92-7.26,16.95-15,23.88-24.39C189.76,80.07,190.49,78.92,191.19,77.75ZM161.17,62c0-.09,0-.13-.12-.13a4.08,4.08,0,0,0-1.58.77c-.4.28-.82.6-1.27,1s-.91.77-1.42,1.22-1,.94-1.51,1.45-1,1.07-1.55,1.64c-1,1.16-2,2.33-2.88,3.49h0c-.58.76-1.1,1.48-1.54,2.16a21,21,0,0,0-1.15,1.9,10.39,10.39,0,0,0-.7,1.55,3.13,3.13,0,0,0-.22,1v0l.58-.4c.29-.21.61-.45.94-.71s.71-.54,1.1-.85l1.2-1,1.24-1.07,2.3-2h0c.4-.36.76-.67,1.06-1l1-1C158.55,68.36,161.17,64.43,161.17,62Z"/><g id="Layer1004"><path class="cls-3" d="M89.5,108.67a2.63,2.63,0,0,1,0,.3,1.09,1.09,0,0,1,0,.22.91.91,0,0,1-.06.16.85.85,0,0,1-.17.2,2.13,2.13,0,0,1-.44.33,3.9,3.9,0,0,1-.71.34,4.22,4.22,0,0,1-.85.25,4.85,4.85,0,0,1-1,.1,4.4,4.4,0,0,1-1.79-.34,3.33,3.33,0,0,1-1.31-1,4.48,4.48,0,0,1-.8-1.57,7.45,7.45,0,0,1-.28-2.16,7.34,7.34,0,0,1,.34-2.38,4.31,4.31,0,0,1,.93-1.63,3.61,3.61,0,0,1,1.38-.94,4.92,4.92,0,0,1,1.73-.31,4.14,4.14,0,0,1,.87.09,5.18,5.18,0,0,1,.78.21,3.7,3.7,0,0,1,.63.32,2.39,2.39,0,0,1,.4.3l.18.2a1.59,1.59,0,0,1,.08.18c0,.06,0,.14,0,.22s0,.19,0,.31a1.23,1.23,0,0,1-.1.57.26.26,0,0,1-.23.16.58.58,0,0,1-.36-.17,5.63,5.63,0,0,0-.51-.38,3.85,3.85,0,0,0-.76-.38,2.82,2.82,0,0,0-1-.18,2.19,2.19,0,0,0-1.91,1,4.81,4.81,0,0,0-.66,2.76,6.86,6.86,0,0,0,.17,1.59,3.52,3.52,0,0,0,.51,1.14,2.14,2.14,0,0,0,.82.68,2.59,2.59,0,0,0,1.11.22,2.62,2.62,0,0,0,1.05-.19,4,4,0,0,0,.77-.41c.22-.15.41-.29.56-.41a.61.61,0,0,1,.35-.19.18.18,0,0,1,.12,0,.24.24,0,0,1,.09.14.79.79,0,0,1,0,.25A1.94,1.94,0,0,1,89.5,108.67Zm8.84-7.43a1.86,1.86,0,0,1,0,.36.64.64,0,0,1-.06.23.45.45,0,0,1-.11.15.27.27,0,0,1-.16,0h-2.8v8.09a.25.25,0,0,1-.05.15.49.49,0,0,1-.13.1l-.27.06-.42,0-.42,0-.27-.06a.42.42,0,0,1-.14-.1.33.33,0,0,1,0-.15V102H90.64a.24.24,0,0,1-.15,0,.35.35,0,0,1-.11-.15,1,1,0,0,1-.07-.24,1.94,1.94,0,0,1,0-.36,1.72,1.72,0,0,1,0-.33,1,1,0,0,1,.07-.24.48.48,0,0,1,.11-.15.25.25,0,0,1,.15-.05H98a.25.25,0,0,1,.15.05.25.25,0,0,1,.11.15,1.09,1.09,0,0,1,.07.25A1.61,1.61,0,0,1,98.34,101.24Zm6,9.13-1.25,3.46a.51.51,0,0,1-.32.26,2.57,2.57,0,0,1-.78.08,2.76,2.76,0,0,1-.44,0,.66.66,0,0,1-.25-.09.23.23,0,0,1-.1-.17.5.5,0,0,1,0-.25l1.3-3.27a.46.46,0,0,1-.18-.13.53.53,0,0,1-.12-.2l-3.35-9a1.2,1.2,0,0,1-.08-.35.28.28,0,0,1,.08-.2.57.57,0,0,1,.27-.1l.51,0h.49a1.33,1.33,0,0,1,.28.06.31.31,0,0,1,.15.12l.1.22,2.68,7.53h0l2.58-7.57a.5.5,0,0,1,.16-.26.6.6,0,0,1,.26-.09l.51,0,.48,0a.57.57,0,0,1,.28.1.25.25,0,0,1,.09.2,1.1,1.1,0,0,1-.06.32Zm4.66,3.15a.21.21,0,0,1,0,.12.23.23,0,0,1-.12.08l-.22,0-.34,0-.36,0-.22,0a.32.32,0,0,1-.13-.08.21.21,0,0,1,0-.12v-4.17a.56.56,0,0,1,.08-.35.53.53,0,0,1,.33-.08h.67a6.65,6.65,0,0,0,.72-1.07,8.66,8.66,0,0,0,.62-1.52,17.43,17.43,0,0,0,.53-2.2c.16-.85.31-1.87.44-3.06a1.81,1.81,0,0,1,.06-.27.49.49,0,0,1,.1-.19.48.48,0,0,1,.17-.1.46.46,0,0,1,.21-.05h5.21a.5.5,0,0,1,.39.15.66.66,0,0,1,.14.47v7.84h1.3a.54.54,0,0,1,.32.08.49.49,0,0,1,.09.35v4.17a.21.21,0,0,1,0,.12.23.23,0,0,1-.12.08l-.23,0-.35,0-.34,0-.22,0a.32.32,0,0,1-.13-.08.21.21,0,0,1,0-.12v-3.15H109Zm6.49-11.65h-3q-.21,1.71-.45,2.88a17.45,17.45,0,0,1-.5,2A6.93,6.93,0,0,1,111,108a5.55,5.55,0,0,1-.61.89h5.09Zm13.69,8.25a.23.23,0,0,1,0,.14.34.34,0,0,1-.13.1l-.26.06-.42,0-.42,0-.27-.06a.32.32,0,0,1-.14-.1.24.24,0,0,1,0-.14v-5.4c0-.27,0-.55,0-.83s0-.56.05-.83c-.16.28-.34.55-.53.82l-.57.8-4,5.44-.13.15a.56.56,0,0,1-.15.1,1,1,0,0,1-.23,0l-.33,0-.38,0-.23-.06a.28.28,0,0,1-.13-.1.23.23,0,0,1,0-.14v-9.41a.2.2,0,0,1,0-.13.23.23,0,0,1,.14-.11,1.1,1.1,0,0,1,.27-.06h.4a1.81,1.81,0,0,1,.69.08.25.25,0,0,1,.19.23v5.44c0,.27,0,.54,0,.81s0,.53,0,.8c.16-.27.32-.53.49-.78s.34-.5.52-.75l4-5.52a.86.86,0,0,1,.13-.14.42.42,0,0,1,.16-.09.85.85,0,0,1,.24,0l.35,0,.37,0a.64.64,0,0,1,.24.06.27.27,0,0,1,.13.1.32.32,0,0,1,0,.14Zm10.12,0a.24.24,0,0,1,0,.15.28.28,0,0,1-.13.1l-.26.06-.44,0-.42,0-.27-.06a.32.32,0,0,1-.14-.1.33.33,0,0,1,0-.15v-3.94h-1a3.83,3.83,0,0,0-1,.1,1.54,1.54,0,0,0-.64.35,2.29,2.29,0,0,0-.52.62,6.43,6.43,0,0,0-.44.94l-.76,1.83a1.5,1.5,0,0,1-.11.22.53.53,0,0,1-.19.13,1.05,1.05,0,0,1-.3.06l-.45,0h-.35l-.25,0a.35.35,0,0,1-.15-.08.2.2,0,0,1-.06-.14.81.81,0,0,1,.06-.24c0-.11.12-.29.23-.56l.75-1.77a4.69,4.69,0,0,1,.72-1.15,2.71,2.71,0,0,1,1-.71,3,3,0,0,1-1.62-.81,2.31,2.31,0,0,1-.59-1.65,2.65,2.65,0,0,1,.28-1.23,2.51,2.51,0,0,1,.83-.92,3.84,3.84,0,0,1,1.34-.59,7.22,7.22,0,0,1,1.83-.2h.58l.67,0,.68,0,.57,0a.64.64,0,0,1,.47.23.8.8,0,0,1,.16.49Zm-1.73-8.39c-.25,0-.51-.06-.77-.07h-.73a4.78,4.78,0,0,0-1.17.12,2.15,2.15,0,0,0-.76.34,1.24,1.24,0,0,0-.4.54,1.55,1.55,0,0,0-.12.66,1.65,1.65,0,0,0,.13.68,1.29,1.29,0,0,0,.43.5,2.24,2.24,0,0,0,.73.32,5.69,5.69,0,0,0,1.25.11h1.41Zm-43.93,28a6.31,6.31,0,0,1-.32,2,4.48,4.48,0,0,1-2.51,2.72,5.84,5.84,0,0,1-2.12.48v3.28a.24.24,0,0,1,0,.14.36.36,0,0,1-.13.11l-.27.06-.41,0-.42,0-.27-.06a.33.33,0,0,1-.14-.11.23.23,0,0,1,0-.14V135a6.32,6.32,0,0,1-2.15-.42,4.5,4.5,0,0,1-1.56-1,4.22,4.22,0,0,1-.94-1.57A6.38,6.38,0,0,1,82,129.9a6.26,6.26,0,0,1,.32-2,4.71,4.71,0,0,1,1-1.62,4.54,4.54,0,0,1,1.56-1.1,6.23,6.23,0,0,1,2.12-.48v-4a.23.23,0,0,1,0-.14.26.26,0,0,1,.14-.1.83.83,0,0,1,.27-.06,2.42,2.42,0,0,1,.42,0,2.29,2.29,0,0,1,.41,0,.83.83,0,0,1,.27.06.27.27,0,0,1,.13.1.24.24,0,0,1,0,.14v4a6.63,6.63,0,0,1,2.16.43,4.38,4.38,0,0,1,1.55,1,4.34,4.34,0,0,1,.93,1.57A6.26,6.26,0,0,1,93.62,129.75Zm-1.79.12a4.27,4.27,0,0,0-.74-2.66,3.27,3.27,0,0,0-2.42-1.09v7.43a3.22,3.22,0,0,0,2.35-1A3.93,3.93,0,0,0,91.83,129.87Zm-4.89-3.75a3.2,3.2,0,0,0-2.35,1,3.91,3.91,0,0,0-.81,2.67,5.7,5.7,0,0,0,.17,1.49,2.89,2.89,0,0,0,.55,1.14,2.67,2.67,0,0,0,1,.76,4.28,4.28,0,0,0,1.46.36Zm16.44,8.41a.21.21,0,0,1,0,.14.32.32,0,0,1-.14.1.77.77,0,0,1-.26.06,2.49,2.49,0,0,1-.41,0,2.62,2.62,0,0,1-.43,0,.9.9,0,0,1-.27-.06.39.39,0,0,1-.14-.1.21.21,0,0,1,0-.14v-8.2H99.07c-.11,1.11-.25,2.09-.41,3a20,20,0,0,1-.52,2.25,9,9,0,0,1-.66,1.62,4.14,4.14,0,0,1-.8,1.06,2.79,2.79,0,0,1-.94.57,3.22,3.22,0,0,1-1.08.18.38.38,0,0,1-.16,0,.19.19,0,0,1-.11-.12.79.79,0,0,1-.07-.23,3.84,3.84,0,0,1,0-.39c0-.17,0-.3,0-.41a1.11,1.11,0,0,1,.05-.24.29.29,0,0,1,.09-.13.33.33,0,0,1,.15,0,1.36,1.36,0,0,0,.65-.16,1.81,1.81,0,0,0,.59-.53,4.56,4.56,0,0,0,.51-1,11.7,11.7,0,0,0,.44-1.48c.13-.58.25-1.27.37-2.05s.23-1.68.34-2.69a.75.75,0,0,1,.15-.47.47.47,0,0,1,.37-.15h4.82a.53.53,0,0,1,.39.15.69.69,0,0,1,.14.47Zm11.9-4.81a7.15,7.15,0,0,1-.3,2.12,4.67,4.67,0,0,1-.9,1.66,4,4,0,0,1-1.5,1.09,5.23,5.23,0,0,1-2.09.39,5.45,5.45,0,0,1-2-.34,3.77,3.77,0,0,1-1.43-1,4.38,4.38,0,0,1-.85-1.6,7.33,7.33,0,0,1-.28-2.13,7.42,7.42,0,0,1,.29-2.11,4.59,4.59,0,0,1,.9-1.66,4.09,4.09,0,0,1,1.49-1.09,5.25,5.25,0,0,1,2.1-.38,5.45,5.45,0,0,1,2,.34,3.66,3.66,0,0,1,1.43,1,4.32,4.32,0,0,1,.86,1.6A7.24,7.24,0,0,1,115.28,129.72Zm-1.79.11a7.4,7.4,0,0,0-.14-1.44,3.7,3.7,0,0,0-.47-1.19,2.2,2.2,0,0,0-.88-.8,2.87,2.87,0,0,0-1.38-.3,2.91,2.91,0,0,0-1.31.27,2.34,2.34,0,0,0-.91.77,3.29,3.29,0,0,0-.52,1.17,5.77,5.77,0,0,0-.18,1.48,7.36,7.36,0,0,0,.14,1.45,3.53,3.53,0,0,0,.47,1.19,2.46,2.46,0,0,0,.89.8,2.87,2.87,0,0,0,1.38.3,3,3,0,0,0,1.31-.27,2.49,2.49,0,0,0,.91-.76,3.29,3.29,0,0,0,.52-1.17A6.37,6.37,0,0,0,113.49,129.83Zm13-.15a8.44,8.44,0,0,1-.27,2.22,4.64,4.64,0,0,1-.78,1.66,3.48,3.48,0,0,1-1.27,1.05,3.9,3.9,0,0,1-1.74.37,3.71,3.71,0,0,1-.77-.08,3,3,0,0,1-.69-.26,3.93,3.93,0,0,1-.67-.45,7.88,7.88,0,0,1-.71-.64v4.71a.23.23,0,0,1,0,.14.33.33,0,0,1-.14.11l-.26.06-.43,0-.42,0-.27-.06a.29.29,0,0,1-.13-.11.23.23,0,0,1,0-.14V125.14a.33.33,0,0,1,0-.15.28.28,0,0,1,.13-.1.7.7,0,0,1,.24-.06H119a.7.7,0,0,1,.23.06.32.32,0,0,1,.14.1.33.33,0,0,1,0,.15v1.26a11.14,11.14,0,0,1,.82-.77,5.27,5.27,0,0,1,.8-.53,3.76,3.76,0,0,1,.82-.32,3.24,3.24,0,0,1,.89-.11,3.61,3.61,0,0,1,1.74.39,3.31,3.31,0,0,1,1.17,1.09,4.9,4.9,0,0,1,.66,1.6A8.58,8.58,0,0,1,126.46,129.68Zm-1.8.2a7.83,7.83,0,0,0-.11-1.39,3.93,3.93,0,0,0-.37-1.2,2.34,2.34,0,0,0-.71-.84,1.92,1.92,0,0,0-1.12-.31,2.11,2.11,0,0,0-.66.1,3,3,0,0,0-.66.31,4.18,4.18,0,0,0-.7.57,8.68,8.68,0,0,0-.77.86v3.74a7.26,7.26,0,0,0,1.35,1.33,2.28,2.28,0,0,0,1.33.46,1.91,1.91,0,0,0,1.11-.32,2.44,2.44,0,0,0,.76-.83,4.27,4.27,0,0,0,.42-1.17A6.4,6.4,0,0,0,124.66,129.88Zm12.74,4.66a.23.23,0,0,1,0,.14.24.24,0,0,1-.14.09.77.77,0,0,1-.26.06,2.49,2.49,0,0,1-.41,0,2.56,2.56,0,0,1-.42,0,.9.9,0,0,1-.27-.06.27.27,0,0,1-.15-.09.25.25,0,0,1,0-.14v-5.4c0-.28,0-.55,0-.84s0-.55.05-.83a8.88,8.88,0,0,1-.52.83l-.58.79-4,5.45-.14.15a.71.71,0,0,1-.14.1l-.23.05h-.33a2,2,0,0,1-.38,0,.7.7,0,0,1-.24-.06.19.19,0,0,1-.12-.09.25.25,0,0,1,0-.14v-9.41a.25.25,0,0,1,0-.14.28.28,0,0,1,.13-.1.9.9,0,0,1,.27-.06h.41a2.12,2.12,0,0,1,.69.07c.13.06.19.14.19.24v5.43c0,.27,0,.54,0,.81s0,.54-.06.8l.49-.78c.16-.25.34-.5.53-.74l4-5.52a.89.89,0,0,1,.13-.14.69.69,0,0,1,.17-.1,1.11,1.11,0,0,1,.24,0H137a.7.7,0,0,1,.24.06.25.25,0,0,1,.12.1.26.26,0,0,1,0,.15Zm9.94-1.46a2.91,2.91,0,0,1,0,.31c0,.09,0,.16,0,.22a.77.77,0,0,1-.07.16,1,1,0,0,1-.17.2,2.18,2.18,0,0,1-.44.32,4.16,4.16,0,0,1-.7.35,5.58,5.58,0,0,1-.85.24,4.32,4.32,0,0,1-.95.1,4.59,4.59,0,0,1-1.8-.33,3.36,3.36,0,0,1-1.31-1,4.31,4.31,0,0,1-.8-1.57,7.38,7.38,0,0,1-.28-2.15,7.3,7.3,0,0,1,.34-2.38,4.5,4.5,0,0,1,.93-1.63,3.67,3.67,0,0,1,1.39-1,4.87,4.87,0,0,1,1.73-.3,4.6,4.6,0,0,1,1.64.3,3.09,3.09,0,0,1,.63.32,2.42,2.42,0,0,1,.41.3,1.2,1.2,0,0,1,.17.2.89.89,0,0,1,.08.17,1.37,1.37,0,0,1,0,.23,2.82,2.82,0,0,1,0,.31,1.29,1.29,0,0,1-.09.57.27.27,0,0,1-.24.16.59.59,0,0,1-.35-.17,5.39,5.39,0,0,0-.52-.39,4.88,4.88,0,0,0-.76-.38,3,3,0,0,0-1.05-.17,2.19,2.19,0,0,0-1.9,1,4.86,4.86,0,0,0-.67,2.77,6.19,6.19,0,0,0,.18,1.58,3.15,3.15,0,0,0,.5,1.14,2.22,2.22,0,0,0,.82.68,2.65,2.65,0,0,0,1.11.23,2.81,2.81,0,0,0,1-.19,4.71,4.71,0,0,0,.78-.42c.22-.15.4-.28.55-.4a.61.61,0,0,1,.35-.19.16.16,0,0,1,.12,0,.28.28,0,0,1,.09.14.83.83,0,0,1,.06.25C147.34,132.82,147.34,132.94,147.34,133.08Zm8.84-7.42a3.16,3.16,0,0,1,0,.35,1,1,0,0,1-.07.24.4.4,0,0,1-.11.14.25.25,0,0,1-.15,0H153v8.09a.29.29,0,0,1,0,.14.39.39,0,0,1-.14.1.77.77,0,0,1-.26.06,2.69,2.69,0,0,1-.43,0,2.56,2.56,0,0,1-.42,0,.9.9,0,0,1-.27-.06.39.39,0,0,1-.14-.1.29.29,0,0,1,0-.14v-8.09h-2.81a.3.3,0,0,1-.15,0,.31.31,0,0,1-.11-.14,1.84,1.84,0,0,1-.07-.24,1.94,1.94,0,0,1,0-.36,1.62,1.62,0,0,1,0-.33,1.23,1.23,0,0,1,.08-.25.27.27,0,0,1,.11-.14.19.19,0,0,1,.14-.05h7.35a.23.23,0,0,1,.15.05.33.33,0,0,1,.11.14,1.31,1.31,0,0,1,.06.25A1.72,1.72,0,0,1,156.18,125.66Z"/><path class="cls-3" d="M166.24,134.54a.23.23,0,0,1,0,.14.24.24,0,0,1-.14.09.77.77,0,0,1-.26.06,2.49,2.49,0,0,1-.41,0,2.56,2.56,0,0,1-.42,0,.9.9,0,0,1-.27-.06.27.27,0,0,1-.15-.09.37.37,0,0,1,0-.14v-5.4c0-.28,0-.55,0-.84l.06-.83a9,9,0,0,1-.53.83c-.19.26-.38.53-.58.79l-4,5.45a1.53,1.53,0,0,0-.13.15.56.56,0,0,1-.15.1l-.23.05h-.33a2.06,2.06,0,0,1-.38,0,.7.7,0,0,1-.24-.06.19.19,0,0,1-.12-.09.25.25,0,0,1,0-.14v-9.41a.25.25,0,0,1,0-.14.27.27,0,0,1,.14-.1.77.77,0,0,1,.26-.06h.41a2.12,2.12,0,0,1,.69.07c.13.06.19.14.19.24v5.43c0,.27,0,.54,0,.81s0,.54,0,.8l.48-.78c.16-.25.34-.5.53-.74l4-5.52a.87.87,0,0,1,.12-.14.69.69,0,0,1,.17-.1,1.25,1.25,0,0,1,.24,0h.72a.7.7,0,0,1,.24.06.34.34,0,0,1,.13.1.37.37,0,0,1,0,.15Zm10.84.06a.15.15,0,0,1,0,.11.26.26,0,0,1-.13.08,1.33,1.33,0,0,1-.26.05h-.42a3.18,3.18,0,0,1-.47,0,1.13,1.13,0,0,1-.3-.06.31.31,0,0,1-.16-.09.35.35,0,0,1-.08-.13l-1-2.43a6.12,6.12,0,0,0-.4-.81,2.22,2.22,0,0,0-.5-.55,1.67,1.67,0,0,0-.63-.3,3.29,3.29,0,0,0-.81-.09h-.73v4.22a.14.14,0,0,1,0,.11.48.48,0,0,1-.16.08,1.46,1.46,0,0,1-.27.05,2.24,2.24,0,0,1-.38,0,2.3,2.3,0,0,1-.39,0,1.43,1.43,0,0,1-.28-.05.35.35,0,0,1-.15-.08.18.18,0,0,1,0-.11v-9.54a.14.14,0,0,1,0-.09.35.35,0,0,1,.15-.08,1.43,1.43,0,0,1,.28,0h.77a1.46,1.46,0,0,1,.27,0,.48.48,0,0,1,.16.08.11.11,0,0,1,0,.1V129h.73a2.73,2.73,0,0,0,.72-.09,1.55,1.55,0,0,0,.59-.29,1.89,1.89,0,0,0,.48-.53,4.05,4.05,0,0,0,.4-.78l.86-2.17A.44.44,0,0,1,175,125a.36.36,0,0,1,.15-.1,1,1,0,0,1,.28-.06h.86a1.2,1.2,0,0,1,.26,0,.24.24,0,0,1,.11.08.12.12,0,0,1,0,.09.64.64,0,0,1,0,.2,2.3,2.3,0,0,1-.08.25l-.89,2.06a4.24,4.24,0,0,1-.46.88,3,3,0,0,1-.49.59,2.12,2.12,0,0,1-.51.37,2.9,2.9,0,0,1-.5.2v0a5.19,5.19,0,0,1,.67.3,3.06,3.06,0,0,1,.58.44,3.44,3.44,0,0,1,.49.62,5,5,0,0,1,.43.83l1,2.38.06.13,0,.12s0,.07,0,.1Zm10.61-.06a.23.23,0,0,1,0,.14.24.24,0,0,1-.14.09.77.77,0,0,1-.26.06,2.49,2.49,0,0,1-.41,0,2.56,2.56,0,0,1-.42,0,.9.9,0,0,1-.27-.06.27.27,0,0,1-.15-.09.25.25,0,0,1,0-.14v-5.4c0-.28,0-.55,0-.84s0-.55.05-.83a8.88,8.88,0,0,1-.52.83l-.58.79-4,5.45-.14.15a.71.71,0,0,1-.14.1l-.23.05h-.33a2,2,0,0,1-.38,0,.7.7,0,0,1-.24-.06.19.19,0,0,1-.12-.09.25.25,0,0,1,0-.14v-9.41a.25.25,0,0,1,0-.14.28.28,0,0,1,.13-.1.9.9,0,0,1,.27-.06h.41a2.12,2.12,0,0,1,.69.07c.13.06.19.14.19.24v5.43c0,.27,0,.54,0,.81s0,.54-.06.8l.49-.78c.16-.25.34-.5.53-.74l4-5.52a.89.89,0,0,1,.13-.14.69.69,0,0,1,.17-.1,1.11,1.11,0,0,1,.24,0h.72a.7.7,0,0,1,.24.06.25.25,0,0,1,.12.1.26.26,0,0,1,0,.15Z"/></g></g></g></g></g></svg>